<svg width="29" height="25" viewBox="0 0 29 25" fill="none" xmlns="http://www.w3.org/2000/svg">
<path d="M1 14.1429V23C1 23.5523 1.44772 24 2 24H27C27.5523 24 28 23.5523 28 23V14.1429M1 14.1429L5.81577 1.64055C5.96443 1.25461 6.33534 1 6.74893 1H22.2511C22.6647 1 23.0356 1.25461 23.1842 1.64055L28 14.1429M1 14.1429C1 14.1429 5.61992 14.1429 8.43894 14.1429C8.99123 14.1429 9.41244 14.6005 9.56357 15.1317C9.92048 16.3862 11.1395 17.4286 14.5 17.4286C17.8605 17.4286 19.0795 16.3862 19.4364 15.1317C19.5876 14.6005 20.0088 14.1429 20.5611 14.1429C23.3801 14.1429 28 14.1429 28 14.1429" stroke="#222222" stroke-width="2"/>
</svg>
