<svg width="1440" height="596" viewBox="0 0 1440 596" fill="none" xmlns="http://www.w3.org/2000/svg">
<g clip-path="url(#clip0_25_969)">
<path d="M-36 0H1476C1476.33 298.333 1476.66 596.667 1477 895H-36V0Z" fill="#00358B"/>
<path d="M-35.25 4.44231e-06H1475.48C1475.62 4.44231e-06 1475.75 0.05479 1475.85 0.152309C1475.95 0.249828 1476 0.382092 1476 0.520004V67C1476 67.1275 1475.95 67.2503 1475.87 67.3458C1475.78 67.4413 1475.67 67.5032 1475.54 67.52C1434.09 73.1467 1410.3 55.3967 1404.17 14.27C1404.16 14.1699 1404.11 14.0762 1404.04 14.0005C1403.98 13.9247 1403.89 13.8703 1403.79 13.8437C1403.69 13.8172 1403.59 13.8197 1403.49 13.851C1403.4 13.8823 1403.31 13.9411 1403.25 14.02C1368.4 57.94 1328.74 62.5833 1284.25 27.95C1284.17 27.8865 1284.08 27.8478 1283.98 27.8388C1283.88 27.8299 1283.78 27.8512 1283.69 27.9C1280.13 29.83 1261.76 39.03 1240.62 31.03C1222.28 24.1 1214.26 8.91 1212.24 4.6C1212.22 4.55033 1212.19 4.50782 1212.14 4.47789C1212.1 4.44797 1212.04 4.43198 1211.99 4.43198C1211.94 4.43198 1211.88 4.44797 1211.84 4.47789C1211.79 4.50782 1211.76 4.55033 1211.74 4.6C1207.73 14.2491 1201.68 22.9147 1194 30C1173.13 49.1 1147.38 49.32 1140.29 49.12C1140.2 49.118 1140.11 49.1401 1140.03 49.1841C1139.95 49.228 1139.89 49.2922 1139.84 49.37C1121.67 78.9567 1097.73 84.6733 1068 66.52C1053.68 70.179 1038.54 68.9398 1025 63C1013.14 57.6612 1003.13 48.9266 996.23 37.9C996.168 37.7978 996.071 37.7208 995.958 37.6824C995.845 37.644 995.721 37.6467 995.61 37.69C991.61 39.34 971.23 46.81 950.08 35.69C930.37 25.3 924.43 6.41 923.17 1.69C923.149 1.61391 923.11 1.54396 923.056 1.48591C923.002 1.42785 922.936 1.38333 922.861 1.35601C922.787 1.32869 922.708 1.31933 922.629 1.32872C922.551 1.3381 922.476 1.36596 922.41 1.41C904.256 13.4919 882.798 19.6382 861 19C841.492 18.2893 822.57 12.1415 806.37 1.25C806.267 1.18149 806.143 1.15192 806.02 1.16658C805.897 1.18124 805.784 1.23918 805.7 1.33C792.419 15.8813 775.386 26.4928 756.47 32C721.9 41.89 693.09 30.89 684.28 27.07C684.196 27.0312 684.102 27.0171 684.01 27.0295C683.918 27.0419 683.831 27.0802 683.76 27.14C639.093 61.9667 599.253 57.13 564.24 12.63C564.172 12.541 564.076 12.4771 563.967 12.4482C563.859 12.4192 563.744 12.4269 563.64 12.47C550.15 18.0734 535.26 19.3794 521 16.21C511.816 14.0591 503.17 10.0538 495.59 4.44C495.524 4.38962 495.446 4.35624 495.364 4.3428C495.282 4.32936 495.197 4.33626 495.118 4.3629C495.039 4.38953 494.968 4.4351 494.911 4.49561C494.854 4.55612 494.812 4.62973 494.79 4.71C490.948 17.3902 483.681 28.7643 473.79 37.58C452.38 56.44 426.66 55.58 420.39 55.19C420.277 55.1838 420.165 55.2147 420.071 55.2778C419.978 55.341 419.907 55.433 419.87 55.54C417.481 62.5549 412.993 68.6655 407.014 73.0436C401.035 77.4217 393.855 79.8553 386.446 80.0147C379.037 80.1741 371.758 78.0514 365.597 73.9346C359.435 69.8177 354.688 63.9057 352 57C344.653 62.3657 335.933 65.533 326.855 66.1328C317.777 66.7326 308.716 64.7402 300.727 60.3878C292.738 56.0354 286.15 49.5023 281.732 41.5497C277.313 33.5971 275.246 24.5525 275.77 15.47C275.808 15.3374 275.793 15.1949 275.726 15.074C275.659 14.953 275.548 14.8635 275.415 14.825C275.282 14.7865 275.14 14.8023 275.019 14.8689C274.898 14.9355 274.808 15.0474 274.77 15.18C270.35 23.54 255.21 47.77 224 56C189.16 65.18 161.83 47.17 156.54 43.39C156.476 43.3434 156.402 43.3124 156.324 43.2994C156.246 43.2863 156.166 43.2917 156.09 43.315C156.014 43.3383 155.945 43.3788 155.888 43.4335C155.831 43.4882 155.787 43.5555 155.76 43.63C152.89 50.9155 147.672 57.0354 140.931 61.0203C134.19 65.0051 126.313 66.6273 118.546 65.6298C110.78 64.6322 103.568 61.0721 98.0531 55.5132C92.5383 49.9542 89.0356 42.7143 88.1 34.94C88.0934 34.8469 88.0614 34.7575 88.0075 34.6813C87.9536 34.6052 87.8798 34.5453 87.7942 34.5082C87.7086 34.4711 87.6145 34.4581 87.5221 34.4708C87.4296 34.4835 87.3424 34.5212 87.27 34.58C81.87 38.76 50.02 61.42 12.07 48.29C-21 36.84 -33.43 7 -35.74 0.700004C-35.7691 0.621225 -35.7786 0.536577 -35.7679 0.4533C-35.7571 0.370022 -35.7263 0.290592 -35.6782 0.2218C-35.63 0.153008 -35.5659 0.0969006 -35.4913 0.0582758C-35.4168 0.019651 -35.334 -0.000342618 -35.25 4.44231e-06V4.44231e-06Z" fill="white"/>
</g>
<defs>
<clipPath id="clip0_25_969">
<rect width="1513" height="895" fill="white" transform="translate(-36)"/>
</clipPath>
</defs>
</svg>
