<svg width="25" height="24" viewBox="0 0 25 24" fill="none" xmlns="http://www.w3.org/2000/svg">
<path fill-rule="evenodd" clip-rule="evenodd" d="M2 16.0828V2.69995H22.0686V16.0828H2ZM0 1.69995C0 1.14767 0.447715 0.699951 1 0.699951H23.0686C23.6209 0.699951 24.0686 1.14767 24.0686 1.69995V17.0828C24.0686 17.6351 23.6209 18.0828 23.0686 18.0828H13.189L13.5979 21.7628H17.3829C17.9351 21.7628 18.3829 22.2105 18.3829 22.7628C18.3829 23.3151 17.9351 23.7628 17.3829 23.7628H12.7029H11.3657H6.68572C6.13343 23.7628 5.68572 23.3151 5.68572 22.7628C5.68572 22.2105 6.13343 21.7628 6.68572 21.7628H10.4707L10.8796 18.0828H1C0.447717 18.0828 0 17.6351 0 17.0828V1.69995Z" fill="#222222"/>
</svg>
