<svg width="27" height="28" viewBox="0 0 27 28" fill="none" xmlns="http://www.w3.org/2000/svg">
<path fill-rule="evenodd" clip-rule="evenodd" d="M7.97792 3.69354C6.82452 4.73719 6 6.37929 6 8.8421C6 11.6754 6.39888 12.2697 6.56633 12.4912C6.67913 12.6404 6.75909 12.7179 6.90906 12.8633C7.01629 12.9673 7.1593 13.106 7.37569 13.3304C7.82525 13.7965 8.31946 14.3937 8.78244 15.3034C9.4785 16.6711 9.89388 17.7807 10.1412 18.6316H15.8588C16.1061 17.7807 16.5215 16.6711 17.2176 15.3034C17.6805 14.3937 18.1747 13.7965 18.6243 13.3304C18.8407 13.106 18.9837 12.9673 19.0909 12.8633L19.0909 12.8633C19.2409 12.7179 19.3209 12.6404 19.4337 12.4912C19.6011 12.2697 20 11.6754 20 8.8421C20 6.37929 19.1755 4.73719 18.0221 3.69354C16.8378 2.62196 15.1035 2 13 2C10.8965 2 9.16222 2.62196 7.97792 3.69354ZM4 8.8421C4 2.94737 8.02944 0 13 0C17.9706 0 22 2.94737 22 8.8421C22 12.8116 21.2793 13.5193 20.3778 14.4046C19.9406 14.834 19.4608 15.3052 19 16.2105C18.2082 17.7664 17.8344 18.9116 17.6579 19.6461C17.5288 20.1831 17.0523 20.6316 16.5 20.6316H9.5C8.94772 20.6316 8.47117 20.1831 8.34214 19.6461C8.16565 18.9116 7.79181 17.7664 7 16.2105C6.53924 15.3052 6.05945 14.834 5.6222 14.4046C4.72066 13.5193 4 12.8116 4 8.8421ZM8.50003 22.6053C8.50003 22.3291 8.72389 22.1053 9.00003 22.1053H17C17.2762 22.1053 17.5 22.3291 17.5 22.6053V26.2647C17.5 26.4286 17.4201 26.5818 17.2827 26.6711C16.7887 26.9922 15.5475 27.754 14.5522 27.9882C14.5173 27.9964 14.4814 28 14.4456 28H11.554C11.5181 28 11.4827 27.9964 11.4478 27.9882C10.4526 27.754 9.21134 26.9922 8.71739 26.6711C8.57999 26.5818 8.50003 26.4286 8.50003 26.2647V22.6053ZM11 8.10526C11 8.00521 11.082 7.66944 11.3379 7.35511C11.5673 7.07344 11.8644 6.89474 12.25 6.89474C12.8023 6.89474 13.25 6.44703 13.25 5.89474C13.25 5.34246 12.8023 4.89474 12.25 4.89474C11.1355 4.89474 10.3077 5.45288 9.78704 6.09226C9.29299 6.69898 8.99998 7.46846 8.99998 8.10526C8.99998 8.65754 9.44769 9.10526 9.99998 9.10526C10.5523 9.10526 11 8.65754 11 8.10526Z" fill="#222222"/>
</svg>
