<svg width="30" height="23" viewBox="0 0 30 23" fill="none" xmlns="http://www.w3.org/2000/svg">
<g clip-path="url(#clip0_326_709)">
<path d="M14.2579 0.523548C14.0572 0.674475 12.6387 1.39733 12.5517 1.39733C12.4714 1.39733 12.0833 1.58798 11.2737 2.03281C11.0462 2.15196 10.6448 2.35055 10.3704 2.4697C9.90875 2.66035 9.28649 2.97809 8.45681 3.43086C8.26946 3.53413 8.06204 3.62151 8.00851 3.62151C7.94829 3.62151 7.70072 3.73272 7.45316 3.86776C7.1989 4.0028 6.83089 4.20933 6.63016 4.32054C6.42943 4.4238 5.96106 4.65416 5.59306 4.82097C5.22505 4.97985 4.57603 5.29758 4.15449 5.52C3.73965 5.74242 3.35157 5.92512 3.31143 5.92512C3.26459 5.92512 3.01033 6.04427 2.736 6.1952C1.55839 6.83862 1.15024 7.03721 1.05656 7.03721C0.922741 7.03721 0.875904 7.19608 0.956196 7.37878C1.01642 7.52176 2.08028 8.14929 2.26094 8.14929C2.31447 8.14929 2.5152 8.23667 2.70255 8.33994C3.65936 8.86421 4.32177 9.18989 4.49573 9.23755C4.74999 9.29316 4.76337 9.39642 4.7433 10.5721L4.72323 11.5253L4.42882 11.6921C3.87347 12.0098 3.73296 12.4467 4.0742 12.7962C4.17457 12.9074 4.3017 13.0107 4.35522 13.0345C4.43552 13.0663 4.4489 13.2172 4.43552 13.9004C4.41544 14.5676 4.42882 14.7742 4.51581 14.9171C4.58272 15.0284 4.62286 15.2587 4.62286 15.5209C4.62286 15.8624 3.90693 21.7883 3.78649 22.4158C3.75972 22.5588 3.80656 22.5985 4.17457 22.7256C4.40206 22.7971 4.70316 22.9162 4.84367 22.9718C5.09792 23.083 5.11131 23.083 5.31204 22.8447C5.46593 22.662 5.57968 22.6064 5.77372 22.6064C5.91423 22.6064 6.02797 22.5985 6.02797 22.5826C6.02797 22.5747 5.92092 21.6771 5.79379 20.5809C5.66666 19.4926 5.5596 18.4361 5.5596 18.2375C5.5596 18.0389 5.486 17.2764 5.39233 16.5297L5.23174 15.1793L5.37226 14.9966C5.50608 14.8377 5.51946 14.7344 5.51277 13.956L5.49938 13.0901L5.76702 12.8439C5.90754 12.7009 6.02797 12.5341 6.02797 12.4706C6.02797 12.2084 5.82724 11.9066 5.53284 11.7398L5.22505 11.5571V10.6038C5.22505 9.72211 5.23174 9.65856 5.35218 9.65856C5.42578 9.65856 5.49938 9.69033 5.51946 9.72211C5.53953 9.76182 5.77372 9.88892 6.04136 10.016C6.309 10.1352 6.55656 10.2702 6.59671 10.302C6.73053 10.4529 6.76398 10.3417 6.76398 9.6665V8.95953L7.28588 8.6259C7.5669 8.4432 7.95498 8.22873 8.13564 8.14929C8.32299 8.06986 8.71775 7.87922 9.02554 7.72829C9.68795 7.38672 10.4574 7.09281 11.0128 6.96572C11.2336 6.91011 11.6283 6.81479 11.8826 6.75124C13.6423 6.29846 15.9173 6.29846 17.7372 6.75124C17.9781 6.81479 18.413 6.91805 18.7074 6.98955C19.2293 7.11664 19.778 7.29934 20.0456 7.43438C20.5541 7.69652 21.424 8.09369 21.618 8.14929C21.7451 8.18901 22.1131 8.3876 22.441 8.58619L23.0231 8.95159V9.6665C23.0231 10.0557 23.0365 10.3735 23.0499 10.3735C23.0633 10.3735 23.5517 10.1193 24.1338 9.81743C24.7159 9.50763 25.2311 9.26138 25.278 9.26138C25.3248 9.26138 25.5189 9.174 25.7129 9.07074C26.9909 8.37966 27.4525 8.14929 27.5596 8.14929C27.6265 8.14929 27.7068 8.11752 27.747 8.08575C27.7804 8.04603 27.9878 7.93482 28.2086 7.83156C29.0316 7.45821 29.045 7.20402 28.2755 6.81479C28.0949 6.71947 27.6399 6.48911 27.2719 6.29846C26.9039 6.10782 26.5158 5.92512 26.4154 5.89334C26.3084 5.86157 26.0407 5.73448 25.8133 5.61532C24.8564 5.09105 24.3078 4.81303 24.2141 4.81303C24.1271 4.81303 23.2439 4.37614 22.9495 4.1855C22.7956 4.08223 21.8723 3.64534 21.6849 3.58179C21.5912 3.55002 21.2968 3.39909 21.0292 3.25611C20.7616 3.10518 20.5341 2.98603 20.514 2.98603C20.5006 2.98603 20.3133 2.89071 20.0991 2.77155C19.885 2.66035 19.6241 2.54119 19.5103 2.50148C19.4033 2.4697 18.9617 2.26317 18.5401 2.03281C18.1186 1.81039 17.5365 1.51649 17.2488 1.39733C16.9678 1.27024 16.4994 1.03988 16.2117 0.888948C15.9307 0.738024 15.576 0.579153 15.4288 0.531492C15.1077 0.428226 14.3984 0.428226 14.2579 0.523548Z" fill="black"/>
<path d="M13.2342 7.27552C12.351 7.39467 11.5213 7.58532 10.5778 7.87922C9.20619 8.30023 8.73113 8.49882 7.62042 9.12635L7.29926 9.30111V11.6206V13.9322L7.62042 13.7971C7.79439 13.7177 8.10218 13.5588 8.3029 13.4476C8.85157 13.1458 9.88867 12.6771 10.0091 12.6771C10.0626 12.6771 10.4306 12.5738 10.8254 12.4467C12.1368 12.0257 13.0937 11.8669 14.559 11.8351C16.1448 11.8033 17.0146 11.9145 18.4398 12.3355C18.8078 12.4388 19.2427 12.5659 19.41 12.6056C19.9118 12.7406 20.7415 13.0822 21.4507 13.4476C21.8187 13.6383 22.2135 13.813 22.3339 13.8368L22.5547 13.8845V11.5729C22.5547 10.1352 22.528 9.26139 22.4878 9.26139C22.4544 9.26139 22.267 9.17401 22.073 9.07075C21.5578 8.79273 20.5541 8.33995 20.2463 8.24463C18.5267 7.70447 17.9312 7.5456 17.1016 7.38673C16.312 7.24375 13.9903 7.17225 13.2342 7.27552Z" fill="black"/>
</g>
<defs>
<clipPath id="clip0_326_709">
<rect width="30" height="23" fill="white"/>
</clipPath>
</defs>
</svg>
