<svg xmlns="http://www.w3.org/2000/svg"  viewBox="0 0 50 50" width="50px" height="50px"><path d="M 13.332031 4 C 8.1895418 4 4 8.1895418 4 13.332031 L 4 36.667969 C 4 41.810458 8.1895418 46 13.332031 46 L 36.667969 46 C 41.810458 46 46 41.809388 46 36.666016 L 46 13.332031 C 46 8.1895418 41.809388 4 36.666016 4 L 13.332031 4 z M 13.332031 6 L 36.666016 6 C 40.728643 6 44 9.2705212 44 13.332031 L 44 36.666016 C 44 40.728643 40.729479 44 36.667969 44 L 13.332031 44 C 9.2705211 44 6 40.729479 6 36.667969 L 6 13.332031 C 6 9.2705211 9.2705212 6 13.332031 6 z M 33.980469 14.990234 A 1.0001 1.0001 0 0 0 33.869141 15 L 27 15 A 1.0001 1.0001 0 1 0 27 17 L 31.585938 17 L 26.585938 22 L 18 22 C 16.35503 22 15 23.35503 15 25 L 15 32 C 15 33.64497 16.35503 35 18 35 L 25 35 C 26.64497 35 28 33.64497 28 32 L 28 23.414062 L 33 18.414062 L 33 23 A 1.0001 1.0001 0 1 0 35 23 L 35 16.126953 A 1.0001 1.0001 0 0 0 33.980469 14.990234 z M 18 24 L 26 24 L 26 32 C 26 32.56503 25.56503 33 25 33 L 18 33 C 17.43497 33 17 32.56503 17 32 L 17 25 C 17 24.43497 17.43497 24 18 24 z"/></svg>