<svg width="30" height="30" viewBox="0 0 30 30" fill="none" xmlns="http://www.w3.org/2000/svg">
<path d="M29.7012 8.17856C29.7012 8.17856 29.4082 5.82588 28.5059 4.79284C27.3633 3.43321 26.0859 3.42655 25.5 3.34657C21.3047 3 15.0059 3 15.0059 3H14.9941C14.9941 3 8.69531 3 4.5 3.34657C3.91406 3.42655 2.63672 3.43321 1.49414 4.79284C0.591797 5.82588 0.304688 8.17856 0.304688 8.17856C0.304688 8.17856 0 10.9445 0 13.7037V16.2896C0 19.0489 0.298828 21.8148 0.298828 21.8148C0.298828 21.8148 0.591797 24.1675 1.48828 25.2005C2.63086 26.5601 4.13086 26.5135 4.79883 26.6601C7.20117 26.92 15 27 15 27C15 27 21.3047 26.9867 25.5 26.6468C26.0859 26.5668 27.3633 26.5601 28.5059 25.2005C29.4082 24.1675 29.7012 21.8148 29.7012 21.8148C29.7012 21.8148 30 19.0555 30 16.2896V13.7037C30 10.9445 29.7012 8.17856 29.7012 8.17856ZM11.9004 19.4288V9.8381L20.0039 14.6501L11.9004 19.4288Z" fill="#2D3537"/>
</svg>
