<?xml version="1.0" encoding="UTF-8"?>
<svg width="700pt" height="700pt" fill="#ffffff" version="1.1" viewBox="0 0 700 700" xmlns="http://www.w3.org/2000/svg" xmlns:xlink="http://www.w3.org/1999/xlink">

 <g>
  <path d="m369.74 305.89v-53.57c87.949-10.961 152.32-92.582 155.02-179.34 0.82813-26.98-36.309-11.043-36.98 9.7617-2.1992 70.695-51.684 121.7-118.04 130.08v-140.07c0-25.008-39.48-10.16-39.48 10.215v129.69c-67.027-10.188-115.96-73.16-118.04-139.68-0.83984-27.047-37.648-11.211-36.98 9.7617 2.8242 90.324 67.637 161.09 155.02 169.92v53.562c-87.914 10.988-151.21 91.953-153.91 178.94-0.875 28.332 34.094 15.176 34.781-7.1836 2.1953-70.449 52.707-122.03 119.13-130.5v139.18c0 25.016 39.48 10.16 39.48-10.207v-128.8c66.59 9.9922 117.03 70.527 119.12 137.51 0.86328 28.242 35.492 15.367 34.781-7.1836-2.8047-90.031-66.078-163.05-153.91-172.1z"/>
  <use x="70" y="644" xlink:href="#u"/>
  <use x="90.550781" y="644" xlink:href="#b"/>
  <use x="104.359375" y="644" xlink:href="#a"/>
  <use x="123.347656" y="644" xlink:href="#d"/>
  <use x="142.242188" y="644" xlink:href="#c"/>
  <use x="155.628906" y="644" xlink:href="#a"/>
  <use x="174.617188" y="644" xlink:href="#j"/>
  <use x="204.410156" y="644" xlink:href="#i"/>
  <use x="224.453125" y="644" xlink:href="#h"/>
  <use x="252.453125" y="644" xlink:href="#g"/>
  <use x="262.867188" y="644" xlink:href="#d"/>
  <use x="281.765625" y="644" xlink:href="#t"/>
  <use x="291.359375" y="644" xlink:href="#f"/>
  <use x="320.539062" y="644" xlink:href="#a"/>
  <use x="349.273438" y="644" xlink:href="#s"/>
  <use x="369.441406" y="644" xlink:href="#a"/>
  <use x="388.429688" y="644" xlink:href="#b"/>
  <use x="402.242188" y="644" xlink:href="#b"/>
  <use x="416.046875" y="644" xlink:href="#d"/>
  <use x="70" y="672" xlink:href="#r"/>
  <use x="82.183594" y="672" xlink:href="#b"/>
  <use x="95.992188" y="672" xlink:href="#e"/>
  <use x="115.226562" y="672" xlink:href="#f"/>
  <use x="154.152344" y="672" xlink:href="#c"/>
  <use x="167.535156" y="672" xlink:href="#q"/>
  <use x="187.46875" y="672" xlink:href="#a"/>
  <use x="216.207031" y="672" xlink:href="#p"/>
  <use x="239.640625" y="672" xlink:href="#e"/>
  <use x="258.878906" y="672" xlink:href="#o"/>
  <use x="278.8125" y="672" xlink:href="#n"/>
  <use x="308.492188" y="672" xlink:href="#m"/>
  <use x="329.015625" y="672" xlink:href="#b"/>
  <use x="342.820312" y="672" xlink:href="#e"/>
  <use x="362.058594" y="672" xlink:href="#l"/>
  <use x="371.65625" y="672" xlink:href="#a"/>
  <use x="390.648438" y="672" xlink:href="#k"/>
  <use x="407.242188" y="672" xlink:href="#c"/>
 </g>
</svg>
