<?xml version="1.0" encoding="UTF-8"?>
<svg width="700pt" height="700pt" version="1.1" fill="#ffffff" viewBox="0 0 700 700" xmlns="http://www.w3.org/2000/svg" xmlns:xlink="http://www.w3.org/1999/xlink">
 <g>
  <path d="m341.18 123.55 12.305 12.188-1.5898 89.426h0.69922c66.586 0 114.73-42.984 136.2-80.602 14.645-3.8711 30.648-8.5625 30.648-8.5625-0.003906 0-58.02 107.94-167.98 113.29l-1.2383 69.547c104.39 5.4531 181.61 103.38 181.61 103.38s-16.711 7.6172-40.008 17.074c0 0-68.773-85.332-142.07-94.859l-1.5469 88.734-22.082-22.344 3.5273-67.277c-96.852 2.0547-149.41 85.562-149.41 85.562l-16.711 4.0586c13.73-49 65.289-110.5 167.42-114.39l3.6406-69.52c-96.945-5.6172-147.12-107.18-147.12-107.18l38.125-9.9609s43.902 82.164 110.32 91.965l5.2617-100.53m-25.531-65.98-6.5898 125.55c-34.332-21.941-57.641-64.082-57.941-64.629l-10.758-20.125-94.562 24.641 15.727 31.852c2.1445 4.3281 49.285 97.738 142.77 119.21l-0.95312 18.016c-99.355 13.324-152.27 78.227-167.69 133.25l-13.355 47.602 76.188-18.48 6.2383-9.9219c0.34766-0.52734 34.172-52.188 94.152-67.727l-2.3672 45.238 79.391 80.383 2.1055-119.39c40.062 18.789 77.688 57.652 91.301 74.441l13.492 16.684 94.566-40.926-22.805-28.957c-3.2148-4.0781-73.617-91.902-174.93-110.99l0.3125-18.234c107.14-19.906 162.52-120.73 164.99-125.34l32.781-60.973-108.05 30.934-6.0156 10.578c-14.117 24.73-42.844 52.852-82.23 62.484l1.2148-68.863z"/>
  <use x="70" y="644" xlink:href="#u"/>
  <use x="90.550781" y="644" xlink:href="#b"/>
  <use x="104.359375" y="644" xlink:href="#a"/>
  <use x="123.347656" y="644" xlink:href="#d"/>
  <use x="142.242188" y="644" xlink:href="#c"/>
  <use x="155.628906" y="644" xlink:href="#a"/>
  <use x="174.617188" y="644" xlink:href="#j"/>
  <use x="204.410156" y="644" xlink:href="#i"/>
  <use x="224.453125" y="644" xlink:href="#h"/>
  <use x="252.453125" y="644" xlink:href="#g"/>
  <use x="262.867188" y="644" xlink:href="#d"/>
  <use x="281.765625" y="644" xlink:href="#t"/>
  <use x="291.359375" y="644" xlink:href="#f"/>
  <use x="320.539062" y="644" xlink:href="#a"/>
  <use x="349.273438" y="644" xlink:href="#s"/>
  <use x="369.441406" y="644" xlink:href="#a"/>
  <use x="388.429688" y="644" xlink:href="#b"/>
  <use x="402.242188" y="644" xlink:href="#b"/>
  <use x="416.046875" y="644" xlink:href="#d"/>
  <use x="70" y="672" xlink:href="#r"/>
  <use x="82.183594" y="672" xlink:href="#b"/>
  <use x="95.992188" y="672" xlink:href="#e"/>
  <use x="115.226562" y="672" xlink:href="#f"/>
  <use x="154.152344" y="672" xlink:href="#c"/>
  <use x="167.535156" y="672" xlink:href="#q"/>
  <use x="187.46875" y="672" xlink:href="#a"/>
  <use x="216.207031" y="672" xlink:href="#p"/>
  <use x="239.640625" y="672" xlink:href="#e"/>
  <use x="258.878906" y="672" xlink:href="#o"/>
  <use x="278.8125" y="672" xlink:href="#n"/>
  <use x="308.492188" y="672" xlink:href="#m"/>
  <use x="329.015625" y="672" xlink:href="#b"/>
  <use x="342.820312" y="672" xlink:href="#e"/>
  <use x="362.058594" y="672" xlink:href="#l"/>
  <use x="371.65625" y="672" xlink:href="#a"/>
  <use x="390.648438" y="672" xlink:href="#k"/>
  <use x="407.242188" y="672" xlink:href="#c"/>
 </g>
</svg>
