<?xml version="1.0" standalone="no"?>
<!DOCTYPE svg PUBLIC "-//W3C//DTD SVG 20010904//EN"
 "http://www.w3.org/TR/2001/REC-SVG-20010904/DTD/svg10.dtd">
<svg version="1.0" xmlns="http://www.w3.org/2000/svg"
 width="512.000000pt" height="512.000000pt" viewBox="0 0 512.000000 512.000000"
 preserveAspectRatio="xMidYMid meet">

<g transform="translate(0.000000,512.000000) scale(0.100000,-0.100000)"
fill="#FFFFFF" stroke="none">
<path d="M830 5106 c-73 -20 -122 -48 -172 -97 -58 -58 -94 -128 -108 -210
-16 -93 -360 -3842 -360 -3920 0 -199 125 -429 283 -519 47 -27 61 -30 141
-30 l89 0 -7 46 c-3 26 -6 55 -6 65 0 17 -9 19 -92 19 l-91 0 -40 43 c-129
138 -196 324 -168 473 16 87 54 165 112 228 l47 51 2168 5 c2146 5 2169 5
2203 25 47 28 72 65 78 116 7 63 -314 3502 -332 3565 -18 62 -82 127 -141 143
-60 17 -3544 14 -3604 -3z m1560 -714 c108 -54 104 -201 -7 -248 -25 -11 -108
-14 -382 -14 l-351 0 -4 -22 c-6 -26 -36 -300 -36 -323 0 -13 48 -15 363 -15
207 0 377 -4 398 -10 111 -31 133 -181 36 -240 -30 -19 -53 -20 -429 -20
l-398 0 -4 -22 c-5 -23 -36 -299 -36 -318 0 -6 139 -10 388 -10 231 0 402 -4
424 -10 41 -12 104 -75 114 -115 10 -41 -2 -115 -23 -144 -11 -14 -35 -36 -53
-48 l-33 -23 -504 0 c-480 0 -506 1 -542 20 -21 10 -50 33 -64 50 -57 67 -57
53 17 743 65 600 75 670 108 707 69 78 74 79 558 80 385 0 428 -2 460 -18z
m533 4 c18 -7 44 -26 58 -42 15 -16 162 -231 328 -478 l301 -449 0 434 c0 405
1 437 19 469 36 69 140 97 198 54 67 -51 62 -15 110 -701 24 -345 42 -649 39
-675 -12 -117 -97 -198 -207 -198 -34 0 -64 7 -89 21 -27 15 -132 137 -347
401 l-308 380 -5 -339 c-5 -331 -5 -339 -28 -378 -33 -56 -66 -78 -128 -83
-80 -7 -141 38 -165 122 -9 31 6 1175 17 1303 7 77 33 120 94 151 52 26 69 27
113 8z"/>
<path d="M1760 1170 l-1274 -5 -38 -50 c-46 -60 -68 -128 -68 -210 0 -106 34
-195 115 -303 l47 -62 67 0 68 0 7 97 c4 54 9 117 12 140 l6 42 -118 3 -119 3
0 35 0 35 2123 3 2122 2 0 55 0 55 -2082 2 -2083 3 -3 29 c-2 16 2 32 10 37 7
5 946 9 2086 9 l2072 0 0 45 0 45 -837 -2 c-461 -2 -1412 -5 -2113 -8z"/>
<path d="M783 793 c-5 -16 -8 -113 -8 -218 1 -165 4 -203 24 -285 25 -99 59
-198 89 -257 l18 -34 108 115 c61 66 116 116 126 116 10 0 65 -50 126 -116
l108 -115 18 35 c36 70 88 246 104 348 16 103 15 379 -1 421 -7 16 -33 17
-356 17 l-349 0 -7 -27z"/>
<path d="M1580 801 c0 -10 3 -33 6 -50 l7 -31 748 0 c666 0 749 -2 763 -16 22
-21 20 -40 -6 -58 -20 -14 -109 -16 -760 -16 l-738 0 0 -45 0 -45 1555 0 1555
0 0 140 0 140 -1565 0 c-1524 0 -1565 0 -1565 -19z"/>
<path d="M1586 414 c-3 -26 -6 -55 -6 -65 0 -18 48 -19 1658 -19 1594 0 1660
1 1675 18 18 19 22 59 9 78 -22 34 -34 34 -1690 34 l-1639 0 -7 -46z"/>
</g>
</svg>
