<?xml version="1.0" standalone="no"?>
<!DOCTYPE svg PUBLIC "-//W3C//DTD SVG 20010904//EN"
 "http://www.w3.org/TR/2001/REC-SVG-20010904/DTD/svg10.dtd">
<svg version="1.0" xmlns="http://www.w3.org/2000/svg"
 width="512.000000pt" height="512.000000pt" viewBox="0 0 512.000000 512.000000"
 preserveAspectRatio="xMidYMid meet">

<g transform="translate(0.000000,512.000000) scale(0.100000,-0.100000)"
fill="#FFFFFF" stroke="none">
<path d="M1347 5084 c-24 -23 -27 -35 -29 -111 l-3 -84 -125 -43 c-451 -154
-786 -334 -981 -526 -132 -129 -186 -255 -177 -405 6 -93 47 -182 112 -247 87
-85 -26 -79 1251 -76 l1137 3 59 63 c135 143 233 447 214 665 -23 268 -174
497 -402 608 -193 94 -457 104 -800 30 l-83 -18 0 31 c0 50 -19 104 -43 121
-35 25 -100 19 -130 -11z m855 -293 c101 -26 170 -62 234 -123 67 -64 109
-128 142 -220 22 -63 26 -89 25 -188 0 -94 -5 -131 -27 -203 -26 -88 -71 -187
-108 -239 l-19 -28 -1074 0 -1073 0 -30 35 c-35 39 -47 85 -40 150 25 220 428
484 1053 690 398 132 721 176 917 126z"/>
<path d="M647 3370 c-78 -20 -198 -96 -224 -143 -48 -85 45 -181 130 -135 12
6 38 23 57 38 87 68 213 68 300 0 79 -61 125 -67 171 -21 71 72 14 164 -148
238 -46 21 -75 27 -152 29 -53 2 -113 -1 -134 -6z"/>
<path d="M1935 3360 c-66 -21 -157 -80 -188 -121 -30 -42 -25 -98 12 -131 43
-38 87 -37 137 3 61 49 112 69 179 69 67 0 118 -20 179 -69 51 -41 94 -41 138
-2 27 24 33 36 33 70 0 33 -7 47 -35 77 -106 109 -299 153 -455 104z"/>
<path d="M841 2860 c-40 -11 -119 -44 -175 -74 -179 -95 -318 -131 -466 -119
-85 6 -143 -22 -177 -87 -45 -86 -26 -149 76 -241 179 -162 367 -258 592 -303
25 -5 26 -8 32 -108 9 -131 29 -215 73 -304 141 -287 462 -443 776 -379 41 8
115 36 168 61 80 39 109 61 182 134 72 73 94 103 131 181 53 109 77 213 77
332 l0 84 49 7 c161 21 402 152 570 310 84 80 102 152 58 231 -36 65 -85 83
-220 83 -145 -1 -230 22 -401 108 -138 70 -247 104 -330 104 -125 -1 -269 -61
-374 -156 -33 -30 -63 -54 -67 -54 -4 0 -33 24 -64 53 -104 95 -254 157 -381
156 -30 0 -88 -9 -129 -19z m276 -216 c30 -14 81 -51 113 -81 l60 -55 -27 -35
c-39 -51 -148 -138 -223 -178 -126 -65 -256 -81 -394 -45 -89 23 -224 90 -314
157 -69 52 -67 61 14 62 95 2 253 54 404 135 52 28 115 56 140 63 65 19 163 9
227 -23z m846 15 c34 -11 67 -24 72 -29 6 -4 51 -28 100 -53 111 -55 232 -94
322 -103 111 -11 113 -14 51 -60 -255 -192 -500 -233 -717 -119 -67 35 -164
114 -220 177 l-30 35 47 45 c65 63 105 88 170 109 75 24 130 23 205 -2z m-334
-500 c77 -50 195 -101 265 -114 l38 -8 -4 -101 c-4 -94 -31 -216 -49 -216 -3
0 -32 15 -63 34 -122 74 -333 116 -484 97 -119 -15 -197 -37 -286 -82 -43 -22
-80 -39 -81 -37 -13 14 -36 130 -41 209 l-7 96 74 23 c131 39 244 107 357 215
l67 63 69 -65 c39 -35 104 -87 145 -114z m-59 -521 c25 -6 78 -26 119 -45 l74
-35 -29 -23 c-126 -102 -332 -133 -483 -72 -64 26 -161 86 -161 99 0 20 146
75 234 89 59 9 180 3 246 -13z"/>
<path d="M2301 1496 c-29 -16 -50 -52 -51 -86 0 -14 25 -87 55 -164 l54 -138
-19 -38 c-11 -21 -30 -74 -42 -117 -29 -101 -31 -285 -4 -383 71 -263 284
-474 545 -541 102 -26 387 -37 446 -18 74 26 96 109 42 163 -22 22 -33 23
-207 29 -266 8 -352 38 -481 166 -86 87 -131 166 -154 276 -27 129 -12 242 49
363 20 40 36 81 36 92 0 11 -16 59 -35 107 -19 48 -35 91 -35 95 0 4 431 8
958 8 1063 0 1034 1 1165 -67 175 -90 296 -286 297 -479 1 -230 -152 -450
-364 -525 -73 -25 -188 -39 -329 -39 -107 0 -109 -1 -138 -29 -56 -57 -28
-139 54 -162 60 -17 315 -4 410 20 210 54 395 204 487 396 59 123 74 190 74
335 1 145 -18 221 -87 355 -62 121 -190 245 -317 308 -177 88 -76 81 -1300 84
-892 2 -1089 0 -1109 -11z"/>
<path d="M2973 1076 c-92 -30 -166 -97 -210 -191 -24 -51 -28 -72 -28 -145 1
-71 5 -94 28 -140 69 -143 218 -222 373 -198 79 12 143 48 202 113 123 134
119 331 -8 469 -62 67 -134 99 -234 103 -50 2 -97 -2 -123 -11z m187 -208 c94
-65 90 -194 -9 -252 -90 -52 -207 10 -218 115 -12 121 128 204 227 137z"/>
<path d="M3639 1061 l-29 -29 0 -209 c0 -197 1 -211 24 -258 46 -100 150 -166
261 -167 84 0 153 24 210 74 85 75 90 91 93 341 l3 217 -30 30 c-46 46 -123
40 -153 -13 -9 -15 -15 -86 -18 -216 l-5 -194 -26 -19 c-35 -27 -92 -27 -126
-1 l-28 20 -5 194 c-3 130 -9 201 -18 216 -30 53 -107 59 -153 14z"/>
<path d="M4443 1066 l-28 -24 -3 -287 c-3 -320 -3 -323 64 -351 29 -12 39 -12
68 0 67 28 67 31 64 351 l-3 287 -28 24 c-19 16 -40 24 -67 24 -27 0 -48 -8
-67 -24z"/>
<path d="M3647 180 c-49 -39 -44 -122 9 -156 65 -43 154 4 154 82 0 78 -100
123 -163 74z"/>
</g>
</svg>
