<svg version="1.1" id="Layer_1" xmlns="http://www.w3.org/2000/svg" xmlns:xlink="http://www.w3.org/1999/xlink" x="0px" y="0px"
	 width="100%" viewBox="0 0 512 512" enable-background="new 0 0 512 512" xml:space="preserve">

<path fill="#ffffff" opacity="1.000000" stroke="none" 
	d="
M200.408813,35.031898 
	C200.769485,47.471390 200.769485,59.900597 200.769485,72.998482 
	C210.264450,72.998482 219.028122,73.202431 227.774780,72.905151 
	C231.655151,72.773262 233.729965,73.956703 235.385956,77.552864 
	C239.533737,86.560204 244.161499,95.346519 248.986588,105.001640 
	C239.335876,105.001640 230.578812,105.174721 221.834335,104.918495 
	C218.215469,104.812447 215.747787,105.844902 214.252899,109.123924 
	C214.116852,109.422348 213.916809,109.705261 213.695557,109.949203 
	C202.779633,121.985039 198.688110,136.072418 200.551834,152.551071 
	C191.445251,153.007401 182.793991,152.845200 174.153183,153.075714 
	C170.425110,153.175171 168.518143,152.335541 167.724380,148.253250 
	C166.268707,140.766586 163.788101,133.479599 162.322525,125.994278 
	C161.497833,121.782242 159.596268,120.782944 155.594528,120.905670 
	C147.459839,121.155136 139.308426,120.858559 131.107788,120.398499 
	C134.783096,102.328850 142.114014,86.296539 153.033020,71.894608 
	C154.497437,69.963074 155.792542,67.903168 157.496384,65.866997 
	C161.932205,61.878502 166.037704,57.925732 170.143204,53.972961 
	C179.282425,46.347569 188.998672,39.632694 200.408813,35.031898 
z"/>
<path fill="#ffffff" opacity="1.000000" stroke="none" 
	d="
M108.188988,360.940857 
	C130.809525,360.958160 153.430069,360.975464 176.987549,360.992554 
	C188.625519,361.011932 199.326553,361.031525 209.912476,361.379639 
	C197.932419,382.843109 197.839645,403.890472 209.782928,424.884125 
	C189.422729,424.949005 169.546356,424.946930 149.670456,425.044464 
	C147.771286,425.053772 145.875183,425.684631 143.642609,425.869293 
	C139.960999,425.501923 136.614456,425.292206 132.774216,425.058685 
	C124.181816,425.020477 116.083092,425.006073 108.182465,424.691589 
	C111.986626,420.973572 111.600983,417.163574 109.684807,413.047913 
	C103.525917,399.819702 103.377594,386.475922 109.586502,373.264679 
	C111.753586,368.653564 111.489502,364.728943 108.188988,360.940857 
z"/>
<path fill="#ffffff" opacity="1.000000" stroke="none" 
	d="
M308.424866,113.966431 
	C308.170135,113.723869 308.208862,113.314751 308.456207,112.856842 
	C317.370209,89.174049 317.975494,65.677193 311.081146,41.927307 
	C322.697662,47.899448 332.128815,56.664665 340.553650,66.345123 
	C349.942383,77.133041 357.321625,89.408005 361.856689,103.029030 
	C364.387177,110.629295 366.190735,118.605415 367.171082,126.554100 
	C368.397400,136.496796 368.677643,146.580658 368.875549,156.613281 
	C368.951263,160.449539 367.671082,164.312546 366.924561,168.563950 
	C364.343414,168.977203 361.846497,169.000534 359.349579,169.000885 
	C335.463226,169.004181 335.424408,169.056992 316.064758,155.121796 
	C314.510284,154.002884 313.240326,151.479736 313.135529,149.539108 
	C312.777130,142.899704 312.715820,136.213455 313.082886,129.575027 
	C313.400970,123.822456 312.232849,118.735229 308.424866,113.966431 
z"/>
<path fill="#ffffff" opacity="1.000000" stroke="none" 
	d="
M246.040527,489.854248 
	C211.942398,489.887268 177.844284,489.920288 143.381348,489.532806 
	C146.635696,485.153870 146.501480,481.130829 144.274933,476.309998 
	C138.961990,464.806549 138.187912,452.939819 143.548218,440.992432 
	C175.294968,440.992920 206.581009,440.989960 237.845581,441.383728 
	C234.009003,458.925201 235.511108,475.161194 246.040527,489.854248 
z"/>
<path fill="#ffffff" opacity="1.000000" stroke="none" 
	d="
M457.858368,464.012054 
	C460.986908,472.628510 464.115479,481.244965 467.275269,489.947479 
	C415.542480,489.947479 363.355988,489.947479 310.642151,489.529480 
	C304.895813,480.777435 300.555542,472.119385 300.482605,462.077087 
	C304.602295,463.089844 308.362183,464.859192 312.129761,464.875732 
	C356.249115,465.069550 400.369690,465.028168 444.489807,464.956787 
	C448.946503,464.949585 453.402191,464.341370 457.858368,464.012054 
z"/>
<path fill="#ffffff" opacity="1.000000" stroke="none" 
	d="
M433.110077,424.963470 
	C444.650574,424.963470 456.191071,424.963470 466.749146,424.963470 
	C463.788757,433.479706 460.886047,441.830109 457.539520,450.509674 
	C454.575256,450.226166 452.056000,449.084930 449.534119,449.079102 
	C403.101440,448.972076 356.668396,449.041016 310.235718,448.935883 
	C305.815399,448.925873 302.437805,450.114166 300.110840,453.548523 
	C300.675079,449.081116 301.297455,445.036987 302.123962,440.697754 
	C304.852661,435.282043 307.377197,430.161469 310.376404,425.028351 
	C351.604065,424.998352 392.357086,424.980896 433.110077,424.963470 
z"/>
<path fill="#ffffff" opacity="1.000000" stroke="none" 
	d="
M337.001678,360.834167 
	C367.127625,360.889374 397.253571,360.944794 427.379517,360.999420 
	C429.158936,361.002655 430.938354,360.999847 432.182465,360.999847 
	C429.141785,369.210541 426.169769,377.235870 422.617554,385.614502 
	C419.578247,385.645294 417.119446,385.044373 414.659943,385.041412 
	C368.190460,384.985443 321.720795,385.041473 275.251465,384.933563 
	C270.821930,384.923279 267.457672,386.138824 265.114319,389.551727 
	C265.612823,378.806091 269.725952,369.751465 275.541626,361.100037 
	C283.014648,360.986603 290.025665,360.913940 297.499512,360.900879 
	C310.975433,360.918396 323.988556,360.876282 337.001678,360.834167 
z"/>
<path fill="#ffffff" opacity="1.000000" stroke="none" 
	d="
M433.057343,424.598877 
	C392.357086,424.980896 351.604065,424.998352 309.914642,425.012634 
	C297.714508,424.979919 286.450806,424.950317 275.072144,424.589966 
	C269.828583,416.800446 266.423798,408.672119 265.621307,399.378174 
	C272.988281,399.755157 280.119629,400.885559 287.255707,400.916046 
	C327.840302,401.089325 368.426025,401.031494 409.011200,400.956726 
	C413.629700,400.948212 418.247070,400.343628 422.864960,400.015442 
	C424.927368,405.709076 426.870819,411.449951 429.106384,417.074707 
	C430.102783,419.581665 431.687134,421.854950 433.057343,424.598877 
z"/>
<path fill="#ffffff" opacity="1.000000" stroke="none" 
	d="
M297.036713,360.841248 
	C290.025665,360.913940 283.014648,360.986603 275.069153,361.048218 
	C256.173584,361.075134 238.212448,361.113159 219.782944,361.110779 
	C216.218918,361.063965 213.123245,361.057556 210.027573,361.051147 
	C199.326553,361.031525 188.625519,361.011932 177.455200,360.980957 
	C176.207779,344.976379 186.780472,332.926788 201.656601,329.270355 
	C204.795898,328.498749 208.261551,329.015900 211.577011,329.007416 
	C221.044678,328.983246 230.512421,328.994171 240.915222,328.980896 
	C252.281570,328.976959 262.712799,328.983490 273.144043,328.989990 
	C273.144043,328.989990 273.562958,329.034882 273.963745,329.380371 
	C275.325989,330.340576 276.223175,331.106049 277.258575,331.547150 
	C290.181183,337.052185 296.037384,347.300751 297.036713,360.841248 
z"/>
<path fill="#ffffff" opacity="1.000000" stroke="none" 
	d="
M92.897041,425.044220 
	C83.252068,425.029266 73.604912,424.891876 63.963287,425.064209 
	C60.472038,425.126587 58.211456,424.250031 56.341682,421.005951 
	C45.471466,402.145966 46.378567,383.319489 56.363724,364.611023 
	C57.337379,362.786743 60.556702,361.224274 62.779804,361.160919 
	C74.244141,360.834351 85.723534,361.036377 97.501961,361.432465 
	C85.853363,382.915619 85.888573,403.930023 97.829803,424.894104 
	C95.884888,424.972626 94.390961,425.008423 92.897041,425.044220 
z"/>
<path fill="#ffffff" opacity="1.000000" stroke="none" 
	d="
M423.035156,399.661621 
	C418.247070,400.343628 413.629700,400.948212 409.011200,400.956726 
	C368.426025,401.031494 327.840302,401.089325 287.255707,400.916046 
	C280.119629,400.885559 272.988281,399.755157 265.485931,398.957703 
	C265.133667,395.844421 265.150177,392.906219 265.166718,389.967987 
	C267.457672,386.138824 270.821930,384.923279 275.251465,384.933563 
	C321.720795,385.041473 368.190460,384.985443 414.659943,385.041412 
	C417.119446,385.044373 419.578247,385.645294 422.450867,385.976196 
	C425.706085,390.355774 426.104889,394.789581 423.035156,399.661621 
z"/>
<path fill="#ffffff" opacity="1.000000" stroke="none" 
	d="
M300.169006,453.971863 
	C302.437805,450.114166 305.815399,448.925873 310.235718,448.935883 
	C356.668396,449.041016 403.101440,448.972076 449.534119,449.079102 
	C452.056000,449.084930 454.575256,450.226166 457.465759,450.912079 
	C461.194946,454.997192 460.728210,459.121155 458.027588,463.658844 
	C453.402191,464.341370 448.946503,464.949585 444.489807,464.956787 
	C400.369690,465.028168 356.249115,465.069550 312.129761,464.875732 
	C308.362183,464.859192 304.602295,463.089844 300.417908,461.633667 
	C300.054321,458.745667 300.111664,456.358765 300.169006,453.971863 
z"/>
<path fill="#ffffff" opacity="1.000000" stroke="none" 
	d="
M300.110840,453.548523 
	C300.111664,456.358765 300.054321,458.745667 300.061646,461.575989 
	C300.555542,472.119385 304.895813,480.777435 310.195740,489.458374 
	C292.099915,489.854370 273.923126,489.903442 255.381241,489.532043 
	C258.638397,485.154114 258.502747,481.128754 256.276978,476.309570 
	C250.964020,464.805939 250.189377,452.940369 255.547638,440.992676 
	C271.312561,440.994965 286.616180,440.993927 301.919830,440.992889 
	C301.297455,445.036987 300.675079,449.081116 300.110840,453.548523 
z"/>
<path fill="#ffffff" opacity="1.000000" stroke="none" 
	d="
M134.044769,489.851410 
	C121.753540,489.901459 109.460884,490.050934 97.172867,489.875885 
	C95.634354,489.854004 93.563286,488.480225 92.680733,487.121216 
	C83.551079,473.062531 80.512657,457.994751 86.431229,441.357849 
	C100.007759,441.000031 112.937393,440.993500 125.845520,441.383728 
	C121.999550,458.926727 123.504425,475.161652 134.044769,489.851410 
z"/>
<path fill="#ffffff" opacity="1.000000" stroke="none" 
	d="
M310.896881,41.623978 
	C317.975494,65.677193 317.370209,89.174049 308.482727,112.653076 
	C302.248566,102.980301 296.190094,93.080109 290.275391,83.094757 
	C289.479370,81.750885 289.059845,79.979309 289.054169,78.403664 
	C288.998474,62.966991 289.067627,47.529865 289.174164,31.641233 
	C296.402222,34.566612 303.557404,37.943626 310.896881,41.623978 
z"/>
<path fill="#ffffff" opacity="1.000000" stroke="none" 
	d="
M297.499512,360.900879 
	C296.037384,347.300751 290.181183,337.052185 277.258575,331.547150 
	C276.223175,331.106049 275.325989,330.340576 274.162140,329.451233 
	C286.084167,329.117035 298.259979,328.333069 310.319641,329.187744 
	C324.264130,330.176025 337.545166,343.348602 337.001160,360.402191 
	C323.988556,360.876282 310.975433,360.918396 297.499512,360.900879 
z"/>
<path fill="#ffffff" opacity="1.000000" stroke="none" 
	d="
M134.431702,489.922302 
	C123.504425,475.161652 121.999550,458.926727 125.966354,441.029633 
	C128.495087,435.213409 130.881500,430.147949 133.267914,425.082489 
	C136.614456,425.292206 139.960999,425.501923 143.810455,426.202240 
	C148.329865,431.837646 144.296326,436.292206 143.087509,440.988953 
	C138.187912,452.939819 138.961990,464.806549 144.274933,476.309998 
	C146.501480,481.130829 146.635696,485.153870 142.905334,489.455414 
	C140.135620,489.863434 137.477127,489.928314 134.431702,489.922302 
z"/>
<path fill="#ffffff" opacity="1.000000" stroke="none" 
	d="
M255.086365,440.989319 
	C250.189377,452.940369 250.964020,464.805939 256.276978,476.309570 
	C258.502747,481.128754 258.638397,485.154114 254.905228,489.454742 
	C252.134705,489.863922 249.475067,489.929901 246.427979,489.925049 
	C235.511108,475.161194 234.009003,458.925201 237.966385,441.029663 
	C240.497711,435.216003 242.886749,430.153137 245.636719,425.006348 
	C249.323166,425.289429 252.648682,425.656433 256.141968,426.356995 
	C260.339447,431.836456 256.295746,436.291626 255.086365,440.989319 
z"/>
<path fill="#ffffff" opacity="1.000000" stroke="none" 
	d="
M98.280800,424.851440 
	C85.888573,403.930023 85.853363,382.915619 97.973984,361.509155 
	C101.137993,358.699463 104.319931,358.156250 107.972336,360.619812 
	C111.489502,364.728943 111.753586,368.653564 109.586502,373.264679 
	C103.377594,386.475922 103.525917,399.819702 109.684807,413.047913 
	C111.600983,417.163574 111.986626,420.973572 107.734146,424.695648 
	C104.152100,424.950317 101.216454,424.900879 98.280800,424.851440 
z"/>
<path fill="#ffffff" opacity="1.000000" stroke="none" 
	d="
M273.081604,328.524231 
	C262.712799,328.983490 252.281570,328.976959 241.376923,328.950134 
	C240.931107,321.282227 240.958694,313.634613 240.942657,305.524994 
	C251.439224,304.563538 261.979401,304.064148 272.792694,303.821350 
	C273.050262,312.071472 273.034729,320.064941 273.081604,328.524231 
z"/>
<path fill="#ffffff" opacity="1.000000" stroke="none" 
	d="
M97.829803,424.894104 
	C101.216454,424.900879 104.152100,424.950317 107.536064,424.995697 
	C116.083092,425.006073 124.181816,425.020477 132.774231,425.058685 
	C130.881500,430.147949 128.495087,435.213409 125.987854,440.632935 
	C112.937393,440.993500 100.007759,441.000031 86.621170,441.011017 
	C88.421761,435.929382 90.679298,430.843292 92.916946,425.400696 
	C94.390961,425.008423 95.884888,424.972626 97.829803,424.894104 
z"/>
<path fill="#ffffff" opacity="1.000000" stroke="none" 
	d="
M170.005859,53.660187 
	C166.037704,57.925732 161.932205,61.878502 157.331039,65.574890 
	C151.871735,60.242458 146.908096,55.166409 141.944458,50.090359 
	C145.761505,46.079834 149.578552,42.069305 153.739166,37.992085 
	C159.344681,43.066063 164.606598,48.206738 170.005859,53.660187 
z"/>
<path fill="#ffffff" opacity="1.000000" stroke="none" 
	d="
M355.948730,239.605423 
	C352.251373,243.924866 348.426849,247.932510 343.946075,251.870453 
	C338.185791,246.814713 333.081818,241.828644 327.977844,236.842575 
	C332.056244,232.561508 336.134613,228.280441 340.556702,223.973114 
	C345.874146,229.062439 350.847870,234.178040 355.948730,239.605423 
z"/>
<path fill="#ffffff" opacity="1.000000" stroke="none" 
	d="
M356.314148,264.980957 
	C360.100281,260.667114 364.194794,256.499207 368.566284,252.159363 
	C373.908569,256.529175 378.973877,261.070923 384.309387,265.854889 
	C378.966766,270.639496 374.797516,274.373291 369.823730,278.827606 
	C365.973358,274.831512 361.297943,269.979187 356.314148,264.980957 
z"/>
<path fill="#ffffff" opacity="1.000000" stroke="none" 
	d="
M141.706146,25.014244 
	C137.918243,29.321875 133.818588,33.486954 129.442108,37.820358 
	C124.107140,33.441677 119.048981,28.894676 113.741402,24.123468 
	C119.052673,19.350525 123.213951,15.611019 128.217041,11.115017 
	C132.068802,15.136111 136.731598,20.003901 141.706146,25.014244 
z"/>
<path fill="#000000" opacity="1.000000" stroke="none" 
	d="
M327.629333,236.916199 
	C333.081818,241.828644 338.185791,246.814713 343.599365,251.928528 
	C326.724304,267.765503 306.617767,277.946533 284.239929,284.043671 
	C268.273804,288.393829 251.960983,288.907196 235.735367,287.784058 
	C220.189240,286.707947 205.151077,282.549591 190.822220,276.026886 
	C174.287521,268.500031 159.681839,258.407043 146.891266,245.473373 
	C127.612625,225.979065 115.315277,202.808075 108.965889,176.253632 
	C105.391159,161.303360 104.918442,146.046570 106.241653,131.011597 
	C108.651344,103.631500 119.145920,79.028534 135.555435,56.987377 
	C137.315170,54.623695 139.364685,52.475735 141.612122,50.159035 
	C146.908096,55.166409 151.871735,60.242458 157.000717,65.610611 
	C155.792542,67.903168 154.497437,69.963074 153.033020,71.894608 
	C142.114014,86.296539 134.783096,102.328850 131.030823,120.825104 
	C127.698196,134.636703 128.680161,147.829681 129.637589,160.943176 
	C130.032242,166.348694 131.941940,171.643616 133.162552,176.988831 
	C136.539597,185.911148 139.118073,195.248306 143.485657,203.656067 
	C149.642014,215.507324 158.294815,225.748856 168.255417,234.727982 
	C184.339600,249.227280 202.995010,258.825104 224.276382,262.911224 
	C232.270142,264.446106 240.505417,266.093384 248.543884,265.736572 
	C264.673584,265.020538 280.587128,262.730652 295.775574,256.228394 
	C307.304047,251.293045 317.475922,244.540405 327.629333,236.916199 
z"/>
<path fill="#ffffff" opacity="1.000000" stroke="none" 
	d="
M133.508194,177.052032 
	C131.941940,171.643616 130.032242,166.348694 129.637589,160.943176 
	C128.680161,147.829681 127.698196,134.636703 131.086945,121.213615 
	C139.308426,120.858559 147.459839,121.155136 155.594528,120.905670 
	C159.596268,120.782944 161.497833,121.782242 162.322525,125.994278 
	C163.788101,133.479599 166.268707,140.766586 167.724380,148.253250 
	C168.518143,152.335541 170.425110,153.175171 174.153183,153.075714 
	C182.793991,152.845200 191.445251,153.007401 200.563507,153.021637 
	C201.034714,153.032898 201.000214,152.999619 200.995209,153.453644 
	C200.993454,161.200897 201.398712,168.522751 200.882309,175.778992 
	C200.404938,182.486557 202.074966,188.135834 206.325684,193.064148 
	C206.195282,193.029633 205.929977,192.980667 205.929977,192.980667 
	C180.103378,195.875046 156.394958,189.146637 133.508194,177.052032 
z"/>
<path fill="#ffffff" opacity="1.000000" stroke="none" 
	d="
M256.836884,177.001587 
	C256.836884,182.119766 256.836884,187.237930 256.836884,192.781250 
	C264.984039,192.781250 272.419342,192.781250 281.326904,192.781250 
	C277.220551,197.924225 273.885651,202.105194 270.546265,206.282578 
	C264.205322,214.214615 257.915161,222.188461 251.466034,230.031555 
	C250.411758,231.313705 248.672073,232.818680 247.214462,232.855743 
	C237.416321,233.104980 227.608826,232.985519 216.634171,232.985519 
	C218.653305,218.200684 217.141174,204.498840 206.148346,193.244751 
	C205.929977,192.980667 206.195282,193.029633 206.723145,193.032837 
	C210.837753,192.522415 214.444550,192.119751 218.007706,191.475571 
	C231.812149,188.979935 244.603378,183.730377 256.836884,177.001587 
z"/>
<path fill="#ffffff" opacity="1.000000" stroke="none" 
	d="
M256.918213,176.749603 
	C244.603378,183.730377 231.812149,188.979935 218.007706,191.475571 
	C214.444550,192.119751 210.837753,192.522415 206.853546,193.067337 
	C202.074966,188.135834 200.404938,182.486557 200.882309,175.778992 
	C201.398712,168.522751 200.993454,161.200897 200.978119,153.436859 
	C219.375519,152.966034 237.785004,152.966034 257.046387,152.966034 
	C257.046387,160.599274 257.046387,167.831573 257.105042,175.529007 
	C257.108948,176.161942 257.054260,176.329773 256.918213,176.749603 
z"/>
<path fill="#ffffff" opacity="1.000000" stroke="none" 
	d="
M245.275818,425.090302 
	C242.886749,430.153137 240.497711,435.216003 237.987854,440.632935 
	C206.581009,440.989960 175.294968,440.992920 143.548218,440.992432 
	C144.296326,436.292206 148.329865,431.837646 144.145508,426.359894 
	C145.875183,425.684631 147.771286,425.053772 149.670456,425.044464 
	C169.546356,424.946930 189.422729,424.949005 210.210388,424.925781 
	C214.075851,424.949005 217.029907,424.969910 220.454010,424.995361 
	C229.041290,425.030029 237.158554,425.060181 245.275818,425.090302 
z"/>
<path fill="#ffffff" opacity="1.000000" stroke="none" 
	d="
M219.983978,424.990784 
	C217.029907,424.969910 214.075851,424.949005 210.694321,424.886414 
	C197.839645,403.890472 197.932419,382.843109 209.912476,361.379669 
	C213.123245,361.057556 216.218918,361.063965 219.933105,361.411530 
	C223.916656,365.092163 223.614304,368.783630 221.761429,372.746155 
	C215.464539,386.212616 215.405457,399.739838 221.766693,413.183350 
	C223.880417,417.650360 223.526688,421.499268 219.983978,424.990784 
z"/>
<path fill="#ffffff" opacity="1.000000" stroke="none" 
	d="
M255.547638,440.992676 
	C256.295746,436.291626 260.339447,431.836456 256.465210,426.091919 
	C262.809448,425.302429 268.998291,425.111572 275.187103,424.920715 
	C286.450806,424.950317 297.714508,424.979919 309.439941,425.025208 
	C307.377197,430.161469 304.852661,435.282043 302.123962,440.697754 
	C286.616180,440.993927 271.312561,440.994965 255.547638,440.992676 
z"/>
<path fill="#ffffff" opacity="1.000000" stroke="none" 
	d="
M275.072144,424.589966 
	C268.998291,425.111572 262.809448,425.302429 256.297424,425.758362 
	C252.648682,425.656433 249.323166,425.289429 245.636734,425.006348 
	C237.158554,425.060181 229.041290,425.030029 220.454010,424.995361 
	C223.526688,421.499268 223.880417,417.650360 221.766693,413.183350 
	C215.405457,399.739838 215.464539,386.212616 221.761429,372.746155 
	C223.614304,368.783630 223.916656,365.092163 220.401459,361.451904 
	C238.212448,361.113159 256.173584,361.075134 274.607208,361.088928 
	C269.725952,369.751465 265.612823,378.806091 265.114319,389.551727 
	C265.150177,392.906219 265.133667,395.844421 265.252502,399.203125 
	C266.423798,408.672119 269.828583,416.800446 275.072144,424.589966 
z"/>
</svg>