<?xml version="1.0" standalone="no"?>
<!DOCTYPE svg PUBLIC "-//W3C//DTD SVG 20010904//EN"
 "http://www.w3.org/TR/2001/REC-SVG-20010904/DTD/svg10.dtd">
<svg version="1.0" xmlns="http://www.w3.org/2000/svg"
 width="512.000000pt" height="512.000000pt" viewBox="0 0 512.000000 512.000000"
 preserveAspectRatio="xMidYMid meet">

<g transform="translate(0.000000,512.000000) scale(0.100000,-0.100000)"
fill="#FFFFFF" stroke="none">
<path d="M1204 4791 c-52 -13 -135 -64 -165 -100 -54 -66 -73 -118 -73 -206
-1 -112 37 -191 128 -262 l25 -20 3 -371 c3 -356 4 -372 24 -398 11 -15 33
-37 48 -48 26 -20 43 -21 297 -24 l269 -3 0 -239 0 -240 160 0 161 0 -3 349
c-3 335 -4 351 -24 377 -11 15 -33 37 -48 48 -26 20 -43 21 -297 24 l-269 3 0
264 c0 146 4 265 8 265 20 0 97 90 121 140 21 45 26 69 26 135 -1 71 -4 87
-34 143 -38 70 -70 101 -143 138 -54 27 -158 40 -214 25z"/>
<path d="M2484 4791 c-52 -13 -135 -64 -165 -100 -54 -66 -73 -118 -73 -206
-1 -66 3 -89 25 -135 24 -50 101 -140 121 -140 4 0 8 -299 8 -665 l0 -665 160
0 160 0 0 665 c0 366 4 665 8 665 20 0 97 90 121 140 37 78 37 193 -1 266 -39
75 -70 107 -137 143 -65 34 -164 49 -227 32z"/>
<path d="M3764 4791 c-52 -13 -135 -64 -165 -100 -54 -66 -73 -118 -73 -206
-1 -66 3 -89 25 -135 24 -50 101 -140 121 -140 4 0 8 -119 8 -265 l0 -264
-269 -3 c-254 -3 -271 -4 -297 -24 -15 -11 -37 -33 -48 -48 -20 -26 -21 -42
-24 -377 l-3 -349 161 0 160 0 0 240 0 239 269 3 c254 3 271 4 297 24 15 11
37 33 48 48 20 26 21 42 24 398 l3 371 25 20 c49 38 76 72 103 127 21 46 26
69 26 135 -1 71 -4 87 -34 143 -38 70 -70 101 -143 138 -54 27 -158 40 -214
25z"/>
<path d="M564 3351 c-52 -13 -135 -64 -165 -100 -54 -66 -73 -118 -73 -206 -1
-112 37 -191 128 -262 l25 -20 3 -531 c3 -518 3 -531 24 -558 49 -66 58 -69
265 -72 l189 -3 0 160 0 161 -80 0 -80 0 0 425 c0 234 4 425 8 425 20 0 97 90
121 140 21 45 26 69 26 135 -1 71 -4 87 -34 143 -38 70 -70 101 -143 138 -54
27 -158 40 -214 25z"/>
<path d="M4404 3351 c-52 -13 -135 -64 -165 -100 -54 -66 -73 -118 -73 -206
-1 -66 3 -89 25 -135 24 -50 101 -140 121 -140 4 0 8 -191 8 -425 l0 -425 -80
0 -80 0 0 -161 0 -160 189 3 c207 3 216 6 265 72 21 27 21 40 24 558 l3 531
25 20 c49 38 76 72 103 127 21 46 26 69 26 135 -1 71 -4 87 -34 143 -38 70
-70 101 -143 138 -54 27 -158 40 -214 25z"/>
<path d="M1365 2711 c-90 -22 -172 -90 -215 -176 l-25 -50 -3 -762 -2 -763
1440 0 1441 0 -3 763 -3 762 -34 63 c-37 69 -79 109 -151 144 l-45 23 -1185 2
c-652 0 -1198 -2 -1215 -6z m1010 -496 c26 -25 32 -63 16 -94 -5 -9 -98 -75
-205 -147 -108 -71 -196 -131 -196 -134 0 -3 88 -63 196 -134 107 -72 200
-138 205 -147 26 -50 -13 -119 -68 -119 -42 0 -550 341 -559 375 -15 59 -5 68
269 250 281 187 298 195 342 150z m712 -150 c274 -182 284 -191 269 -250 -9
-34 -517 -375 -559 -375 -55 0 -94 69 -68 119 5 9 98 75 205 147 108 71 196
131 196 134 0 3 -88 63 -196 134 -107 72 -200 138 -205 147 -26 50 13 119 68
119 20 0 107 -53 290 -175z"/>
<path d="M800 772 c0 -43 27 -137 56 -194 36 -71 123 -159 193 -197 121 -64
41 -61 1511 -61 1470 0 1390 -3 1511 61 70 38 157 126 193 197 29 57 56 151
56 194 l0 28 -1760 0 -1760 0 0 -28z"/>
</g>
</svg>
