<svg version="1.1" id="Layer_1" xmlns="http://www.w3.org/2000/svg" xmlns:xlink="http://www.w3.org/1999/xlink" x="0px" y="0px"
	 width="100%" viewBox="0 0 512 512" enable-background="new 0 0 512 512" xml:space="preserve">
<path fill="#FFFFFF" opacity="1.000000" stroke="none" 
	d="
M513.000000,256.000000 
	C513.000000,256.444336 513.000000,256.888672 512.668640,257.736603 
	C488.918518,281.571655 465.525696,305.029175 442.037262,328.390656 
	C439.897736,330.518646 438.906525,332.554749 438.919098,335.669403 
	C439.050323,368.135590 438.888794,400.603363 439.117462,433.068481 
	C439.152527,438.052826 437.564423,439.125275 432.889374,439.098450 
	C400.423737,438.911926 367.956146,438.942474 335.490387,439.123260 
	C333.212067,439.135895 330.385498,440.344208 328.755402,441.951477 
	C309.075989,461.354706 289.559784,480.923737 270.037323,500.485687 
	C265.949463,504.581848 262.008606,508.824738 258.000000,513.000000 
	C257.555664,513.000000 257.111328,513.000000 256.263397,512.668640 
	C232.428375,488.918518 208.970886,465.525665 185.609406,442.037323 
	C183.481415,439.897797 181.445343,438.906525 178.330688,438.919098 
	C145.864456,439.050323 113.396713,438.888794 80.931564,439.117462 
	C75.947296,439.152557 74.874718,437.564545 74.901573,432.889404 
	C75.088097,400.423737 75.057487,367.956177 74.876732,335.490387 
	C74.864052,333.212067 73.655762,330.385529 72.048523,328.755402 
	C52.645267,309.076019 33.076225,289.559845 13.514259,270.037323 
	C9.418118,265.949432 5.175256,262.008606 1.000000,258.000000 
	C1.000000,257.555664 1.000000,257.111328 1.331371,256.263397 
	C25.081480,232.428375 48.474297,208.970886 71.962631,185.609421 
	C74.102173,183.481445 75.093483,181.445389 75.080887,178.330734 
	C74.949646,145.864487 75.111176,113.396744 74.882545,80.931595 
	C74.847443,75.947411 76.435333,74.874718 81.110527,74.901566 
	C113.576225,75.088112 146.043808,75.057487 178.509567,74.876717 
	C180.787903,74.864029 183.614456,73.655769 185.244568,72.048538 
	C204.923981,52.645287 224.440186,33.076248 243.962692,13.514274 
	C248.050583,9.418142 251.991409,5.175262 256.000000,1.000001 
	C256.444336,1.000000 256.888672,1.000000 257.736603,1.331367 
	C281.571655,25.081478 305.029144,48.474297 328.390594,71.962654 
	C330.518555,74.102173 332.554626,75.093498 335.669312,75.080902 
	C368.135529,74.949646 400.603271,75.111183 433.068420,74.882538 
	C438.052673,74.847443 439.125275,76.435432 439.098419,81.110565 
	C438.911896,113.576256 438.942474,146.043839 439.123230,178.509583 
	C439.135925,180.787933 440.344208,183.614517 441.951416,185.244629 
	C461.354675,204.924042 480.923767,224.440170 500.485718,243.962708 
	C504.581848,248.050583 508.824738,251.991409 513.000000,256.000000 
M430.000031,296.500031 
	C443.146027,283.364380 456.292023,270.228729 469.581024,256.950195 
	C449.759247,237.167374 430.450592,217.833969 411.035339,198.608185 
	C408.886627,196.480408 407.902313,194.435806 407.918823,191.320679 
	C408.060394,164.658524 408.000000,137.995285 408.000000,111.332375 
	C408.000000,109.583969 408.000000,107.835556 408.000000,106.000000 
	C379.146973,106.000000 350.989594,105.955238 322.832825,106.064682 
	C319.796844,106.076485 317.670013,105.280991 315.495880,103.077049 
	C300.634460,88.011757 285.610535,73.106796 270.646637,58.142548 
	C266.193481,53.689274 261.764648,49.211647 256.715942,44.132809 
	C255.413406,45.685585 254.449188,47.025505 253.298004,48.178822 
	C234.934326,66.576920 216.590485,84.995514 198.083984,103.249123 
	C196.554840,104.757378 193.891403,105.869354 191.746063,105.884323 
	C166.084259,106.063461 140.420776,106.000000 114.757721,106.000000 
	C111.966209,106.000000 109.174698,106.000000 106.000000,106.000000 
	C106.000000,107.997322 106.000000,109.625092 106.000000,111.252853 
	C106.000000,138.082397 106.060707,164.912354 105.884743,191.740738 
	C105.870667,193.886353 104.761002,196.551620 103.253105,198.080414 
	C84.999573,216.586960 66.587997,234.937866 48.165264,253.276749 
	C47.013428,254.423325 45.426353,255.132660 43.322647,256.519501 
	C45.754818,258.606720 47.075188,259.598297 48.231953,260.753693 
	C66.506302,279.006165 84.717896,297.321808 103.072662,315.492920 
	C105.270134,317.668396 106.078369,319.788513 106.065475,322.827484 
	C105.952354,349.489899 106.000000,376.153046 106.000000,402.815948 
	C106.000000,404.431244 106.000000,406.046509 106.000000,408.000000 
	C108.070541,408.000000 109.698776,408.000000 111.327011,408.000000 
	C137.989914,408.000000 164.653473,407.920715 191.314667,408.133789 
	C193.737335,408.153137 196.729858,409.456055 198.469604,411.167419 
	C216.881821,429.279785 235.107819,447.581757 253.326416,465.889923 
	C254.468231,467.037354 255.120010,468.672424 256.737946,471.262238 
	C258.841003,468.382080 259.662903,466.888763 260.818878,465.728241 
	C278.929413,447.547241 297.120697,429.446472 315.178955,411.213898 
	C317.434082,408.937012 319.633240,407.906799 322.901794,407.923492 
	C349.563995,408.059418 376.227234,408.000000 402.890137,408.000000 
	C404.498291,408.000000 406.106415,408.000000 408.000000,408.000000 
	C408.000000,405.868652 408.000000,404.233734 408.000000,402.598785 
	C408.000000,375.935883 407.932037,349.272491 408.120575,322.610931 
	C408.136780,320.315582 409.306061,317.525543 410.875549,315.833252 
	C416.876190,309.363068 423.259552,303.247803 430.000031,296.500031 
z"/>



<path fill="#ffffff" opacity="1.000000" stroke="none" 
	d="
M396.250000,223.750031 
	C407.350159,234.821884 418.200317,245.643723 429.361816,256.776093 
	C428.325592,257.943359 427.433228,259.057007 426.431091,260.061188 
	C411.249634,275.273865 395.993652,290.413239 380.948944,305.759796 
	C379.343933,307.397003 378.147583,310.217285 378.125366,312.502014 
	C377.914886,334.139099 378.000000,355.779083 378.000000,377.758179 
	C376.377441,377.845520 374.942657,377.988983 373.507751,377.990021 
	C353.180573,378.004669 332.852448,377.910156 312.527527,378.124908 
	C310.239105,378.149078 307.413086,379.327209 305.776825,380.930237 
	C290.663330,395.736664 275.744629,410.742188 260.813873,425.734283 
	C259.658630,426.894287 258.841980,428.391510 257.562439,430.152496 
	C252.316681,424.873230 247.898514,420.403992 243.455353,415.959686 
	C231.793991,404.295380 220.057983,392.704498 208.510651,380.928467 
	C206.345398,378.720276 204.217834,377.915649 201.176712,377.933380 
	C179.687744,378.058746 158.197739,378.000000 136.000000,378.000000 
	C136.000000,376.344025 136.000000,374.764862 136.000000,373.185669 
	C136.000000,352.858490 136.080353,332.530518 135.881500,312.205292 
	C135.860535,310.063507 134.723846,307.417877 133.213074,305.884644 
	C117.202873,289.636353 101.011909,273.566132 84.634026,257.210480 
	C85.740143,255.977432 86.655403,254.857056 87.672516,253.838394 
	C102.505470,238.982681 117.289742,224.077255 132.253296,209.354095 
	C134.921204,206.729050 136.124588,204.165817 136.090790,200.354370 
	C135.901978,179.063950 136.000000,157.770981 136.000000,136.000000 
	C140.409180,136.000000 144.521652,136.000000 148.634140,136.000000 
	C165.795609,136.000000 182.959122,135.858032 200.117035,136.105026 
	C204.143112,136.162994 206.785782,134.875549 209.541306,132.068466 
	C224.013412,117.325516 238.707855,102.800941 253.300522,88.176010 
	C254.451172,87.022827 255.414413,85.682632 256.682495,84.169556 
	C269.521027,97.012527 281.743286,109.245461 293.973572,121.470367 
	C298.797577,126.292229 302.863922,132.965515 308.691101,135.382996 
	C314.528748,137.804825 322.132599,135.990311 328.962341,135.995819 
	C345.106415,136.008835 361.250519,136.000000 377.754700,136.000000 
	C377.842438,137.594666 377.988800,139.026688 377.989838,140.458786 
	C378.004730,160.952576 377.932343,181.446960 378.106232,201.939270 
	C378.123352,203.954803 379.144501,206.399399 380.519379,207.887268 
	C385.490204,213.266525 390.811188,218.322189 396.250000,223.750031 
M203.497955,348.000000 
	C207.162949,348.000000 210.856018,348.284485 214.485703,347.926544 
	C218.827423,347.498352 221.821808,349.075317 224.818985,352.178833 
	C235.207596,362.936066 245.893463,373.406250 256.586090,384.105621 
	C258.270386,382.711884 259.872589,381.576538 261.250153,380.214050 
	C268.237183,373.303406 275.784271,366.837036 281.955231,359.254700 
	C289.311035,350.216553 297.739777,346.748016 309.422302,347.752838 
	C322.096405,348.842896 334.936798,348.000000 348.000000,348.000000 
	C348.000000,331.552460 348.191406,315.591217 347.879181,299.639862 
	C347.789703,295.068298 349.219330,292.016479 352.431702,288.912048 
	C363.182098,278.522980 373.634338,267.825317 384.483276,256.962982 
	C375.557953,248.044556 367.342682,238.804169 358.030792,230.847076 
	C350.140381,224.104614 346.982605,216.736694 347.785614,206.371490 
	C348.709137,194.450104 348.007904,182.402237 347.989563,170.409348 
	C347.987366,168.981659 347.842010,167.554199 347.767365,166.205276 
	C347.040436,166.101730 346.720184,166.016495 346.399902,166.016235 
	C334.073914,166.005981 321.673553,165.161774 309.443359,166.242371 
	C297.769684,167.273773 289.426483,163.714462 281.955750,154.775558 
	C274.437683,145.780029 265.510773,137.961990 257.076324,129.502777 
	C245.722610,140.835938 234.695984,151.687927 223.886353,162.751923 
	C221.474487,165.220520 219.080383,166.116440 215.671967,166.079727 
	C199.234482,165.902649 182.794037,166.000000 166.000000,166.000000 
	C166.000000,183.215424 166.096039,199.999268 165.880920,216.779114 
	C165.853409,218.924774 164.721130,221.546738 163.222733,223.102463 
	C154.328064,232.337402 145.218307,241.367538 136.076675,250.360596 
	C133.874985,252.526520 131.279419,254.292053 128.829025,256.270752 
	C141.190582,268.642181 152.434723,279.769104 163.471191,291.098328 
	C164.871201,292.535461 165.843430,295.017029 165.889328,297.040222 
	C166.127274,307.528625 166.000000,318.025330 166.000000,328.519135 
	C166.000000,334.947601 166.000000,341.376068 166.000000,348.000000 
	C178.554550,348.000000 190.526703,348.000000 203.497955,348.000000 
z"/>

</svg>