<?xml version="1.0" standalone="no"?>
<!DOCTYPE svg PUBLIC "-//W3C//DTD SVG 20010904//EN"
 "http://www.w3.org/TR/2001/REC-SVG-20010904/DTD/svg10.dtd">
<svg version="1.0" xmlns="http://www.w3.org/2000/svg"
 width="512.000000pt" height="512.000000pt" viewBox="0 0 512.000000 512.000000"
 preserveAspectRatio="xMidYMid meet">

<g transform="translate(0.000000,512.000000) scale(0.100000,-0.100000)"
fill="#FFFFFF" stroke="none">
<path d="M2471 5109 c-172 -34 -318 -182 -351 -358 -27 -145 13 -783 66 -1038
3 -18 -23 -46 -148 -156 -208 -184 -265 -238 -354 -337 -234 -262 -352 -545
-371 -886 -22 -418 164 -820 494 -1068 316 -237 693 -311 1077 -211 50 13 92
23 92 22 6 -6 25 -291 30 -457 7 -187 6 -197 -15 -237 -38 -76 -124 -102 -201
-63 -69 35 -80 71 -80 265 l0 165 -150 0 -150 0 0 -164 c0 -90 5 -187 10 -217
45 -235 275 -399 506 -361 192 32 339 175 375 367 18 95 -9 708 -36 831 -4 16
11 32 66 74 133 101 267 266 348 428 49 98 98 255 117 377 42 276 -23 535
-188 738 -117 146 -292 259 -473 308 -105 29 -328 32 -420 6 -33 -9 -63 -13
-66 -9 -11 11 -74 216 -105 339 l-29 113 46 47 c274 287 407 559 441 900 15
152 4 243 -40 337 -85 181 -292 284 -491 245z m159 -309 c78 -40 95 -118 65
-310 -18 -120 -47 -214 -95 -310 -40 -78 -138 -225 -146 -217 -10 10 -34 315
-40 517 -7 208 -6 216 15 257 38 76 124 102 201 63z m-332 -1570 c17 -58 42
-137 56 -176 l24 -71 -46 -37 c-232 -188 -364 -537 -307 -811 48 -227 235
-412 465 -461 92 -20 208 -14 300 15 35 11 68 17 71 13 8 -9 57 -212 65 -273
l6 -45 -64 -22 c-246 -80 -495 -64 -723 48 -192 93 -341 243 -435 435 -76 153
-95 246 -94 440 1 137 5 174 28 260 30 116 105 275 173 366 93 125 428 449
444 431 4 -4 20 -54 37 -112z m737 -385 c227 -48 412 -235 461 -465 47 -220
-36 -514 -203 -719 -37 -47 -73 -86 -79 -88 -6 -2 -18 31 -28 74 -10 43 -31
124 -46 180 l-28 102 34 69 c33 67 63 178 64 235 l0 27 -107 0 -108 1 -118
285 c-65 158 -116 289 -113 292 23 22 178 27 271 7z m-447 -382 c145 -348 185
-455 170 -465 -7 -4 -37 -15 -67 -24 -138 -41 -295 32 -353 164 -58 130 -14
346 101 490 23 28 45 52 50 52 4 0 49 -98 99 -217z"/>
</g>
</svg>
