<?xml version="1.0" encoding="UTF-8"?>
<!DOCTYPE svg PUBLIC "-//W3C//DTD SVG 1.1//EN" "http://www.w3.org/Graphics/SVG/1.1/DTD/svg11.dtd">
<svg xmlns="http://www.w3.org/2000/svg" version="1.1" width="512px" height="512px" style="shape-rendering:geometricPrecision; text-rendering:geometricPrecision; image-rendering:optimizeQuality; fill-rule:evenodd; clip-rule:evenodd" xmlns:xlink="http://www.w3.org/1999/xlink">
<g><path style="opacity:0.927" fill="#FFFFFF" d="M 245.5,18.5 C 259.907,16.6039 273.24,19.4373 285.5,27C 305.12,41.3651 319.62,59.8651 329,82.5C 332.777,91.0535 336.277,99.7202 339.5,108.5C 340.333,108.833 341.167,109.167 342,109.5C 372.103,102.086 401.936,102.919 431.5,112C 462.859,126.511 474.192,150.677 465.5,184.5C 469.071,188.629 471.905,193.296 474,198.5C 478.605,216.045 473.105,229.211 457.5,238C 450.758,240.493 443.925,240.993 437,239.5C 433.024,244.977 428.858,250.31 424.5,255.5C 441.222,274.933 454.389,296.6 464,320.5C 476.182,365.978 459.349,393.812 413.5,404C 389.541,407.337 365.707,406.503 342,401.5C 341.167,401.833 340.333,402.167 339.5,402.5C 337.26,408.39 334.927,414.223 332.5,420C 341.489,428.64 344.655,439.14 342,451.5C 334.219,471.891 319.885,478.891 299,472.5C 279.508,493.081 256.675,497.914 230.5,487C 212.192,475.355 198.025,459.855 188,440.5C 181.675,428.183 176.175,415.517 171.5,402.5C 170.833,402.167 170.167,401.833 169.5,401.5C 140.319,408.474 111.319,407.974 82.5,400C 48.1961,385.834 36.0295,360.668 46,324.5C 49.648,312.551 54.648,301.217 61,290.5C 68.5332,278.133 77.0332,266.466 86.5,255.5C 82.3088,250.476 78.3088,245.31 74.5,240C 57.1648,243.082 44.3315,236.915 36,221.5C 31.3552,206.893 34.5219,194.227 45.5,183.5C 36.7966,148.404 49.1299,124.238 82.5,111C 111.327,102.907 140.327,102.407 169.5,109.5C 170.167,109.167 170.833,108.833 171.5,108.5C 178.862,86.4407 189.362,66.1073 203,47.5C 214.13,33.1743 228.296,23.5076 245.5,18.5 Z M 247.5,33.5 C 266.066,32.3648 281.232,39.0315 293,53.5C 307.429,71.3542 317.929,91.3542 324.5,113.5C 300.768,118.966 277.768,126.633 255.5,136.5C 233.232,126.633 210.232,118.966 186.5,113.5C 192.487,93.5264 201.653,75.1931 214,58.5C 222.806,46.8423 233.972,38.509 247.5,33.5 Z M 117.5,119.5 C 133.631,119.6 149.631,121.1 165.5,124C 165.957,124.414 166.291,124.914 166.5,125.5C 159.944,148.841 155.111,172.508 152,196.5C 132.621,210.63 114.454,226.296 97.5,243.5C 94.0092,239.84 90.6758,236.006 87.5,232C 98.1052,219.04 99.2718,205.206 91,190.5C 83.1335,180.492 72.9669,176.492 60.5,178.5C 53.8167,152.369 63.15,134.536 88.5,125C 98.1433,122.285 107.81,120.451 117.5,119.5 Z M 378.5,119.5 C 395.345,118.863 411.678,121.363 427.5,127C 449.096,137.698 457.096,154.864 451.5,178.5C 428.454,176.19 415.454,186.523 412.5,209.5C 412.841,218.51 416.174,226.177 422.5,232.5C 420.862,235.304 419.029,237.971 417,240.5C 415.887,242.329 414.387,243.163 412.5,243C 396.643,226.132 379.309,211.132 360.5,198C 359.299,197.097 358.465,195.931 358,194.5C 355.615,171.077 351.115,148.077 344.5,125.5C 344.709,124.914 345.043,124.414 345.5,124C 356.593,122.073 367.593,120.573 378.5,119.5 Z M 181.5,127.5 C 200.13,131.71 218.13,137.71 235.5,145.5C 213.012,156.905 191.346,169.572 170.5,183.5C 172.342,164.623 176.008,145.956 181.5,127.5 Z M 327.5,127.5 C 328.75,127.577 329.583,128.244 330,129.5C 335.266,147.323 338.766,165.323 340.5,183.5C 319.654,169.572 297.988,156.905 275.5,145.5C 292.417,138.084 309.751,132.084 327.5,127.5 Z M 254.5,153.5 C 286.28,167.3 316.113,184.3 344,204.5C 347.333,238.5 347.333,272.5 344,306.5C 316.346,326.42 286.846,343.42 255.5,357.5C 224.154,343.42 194.654,326.42 167,306.5C 163.667,272.5 163.667,238.5 167,204.5C 194.541,184.811 223.707,167.811 254.5,153.5 Z M 62.5,192.5 C 77.852,193.533 83.6853,201.533 80,216.5C 74.1095,225.573 66.2761,227.74 56.5,223C 48.2438,216.473 46.7438,208.64 52,199.5C 54.9978,196.262 58.4978,193.929 62.5,192.5 Z M 441.5,192.5 C 450.461,192.31 456.628,196.31 460,204.5C 461.167,219.333 454.333,226.167 439.5,225C 427.972,219.383 425.138,210.883 431,199.5C 433.998,196.262 437.498,193.929 441.5,192.5 Z M 254.5,214.5 C 275.232,216.07 288.732,226.737 295,246.5C 297.854,270.959 287.687,287.125 264.5,295C 240.05,297.866 223.883,287.699 216,264.5C 213.695,235.99 226.528,219.324 254.5,214.5 Z M 149.5,217.5 C 149.342,242.668 149.508,268.001 150,293.5C 134.792,282.464 120.959,269.797 108.5,255.5C 120.984,241.341 134.651,228.674 149.5,217.5 Z M 360.5,217.5 C 376,228.324 390,240.991 402.5,255.5C 390.041,269.797 376.208,282.464 361,293.5C 361.833,268.169 361.666,242.836 360.5,217.5 Z M 96.5,267.5 C 107.644,277.808 118.978,287.974 130.5,298C 137.577,303.621 144.743,309.121 152,314.5C 155.111,338.492 159.944,362.159 166.5,385.5C 140.716,393.087 114.716,393.254 88.5,386C 62.7436,375.99 53.2436,357.49 60,330.5C 68.0696,307.014 80.2362,286.014 96.5,267.5 Z M 412.5,267.5 C 430.352,285.16 443.185,306.16 451,330.5C 457.483,363.673 443.983,383.173 410.5,389C 388.739,392.276 367.072,391.609 345.5,387C 345.043,386.586 344.709,386.086 344.5,385.5C 351.053,362.181 355.886,338.515 359,314.5C 378.312,300.582 396.145,284.915 412.5,267.5 Z M 169.5,327.5 C 190.792,341.154 212.792,353.821 235.5,365.5C 218.417,373.083 200.751,379.083 182.5,383.5C 176.393,365.309 172.06,346.643 169.5,327.5 Z M 339.5,327.5 C 340.497,327.47 341.164,327.97 341.5,329C 338.846,344.27 335.679,359.437 332,374.5C 331.284,377.72 330.117,380.72 328.5,383.5C 310.249,379.083 292.583,373.083 275.5,365.5C 297.887,354.318 319.221,341.652 339.5,327.5 Z M 253.5,374.5 C 267.786,379.636 282.12,384.803 296.5,390C 305.765,392.816 315.099,395.316 324.5,397.5C 322.974,402.91 321.141,408.244 319,413.5C 300.221,410.224 287.554,417.557 281,435.5C 280.333,440.833 280.333,446.167 281,451.5C 282.476,456.084 284.143,460.418 286,464.5C 270.061,479.215 252.561,481.382 233.5,471C 219.057,460.222 207.89,446.722 200,430.5C 194.611,419.826 190.111,408.826 186.5,397.5C 209.817,392.395 232.15,384.729 253.5,374.5 Z M 306.5,427.5 C 321.314,426.813 328.147,433.813 327,448.5C 324.241,455.478 319.075,459.478 311.5,460.5C 296.611,457.054 292.111,448.387 298,434.5C 300.441,431.546 303.275,429.213 306.5,427.5 Z"/></g>
<g><path style="opacity:0.904" fill="#FFFFFF" d="M 275.5,248.5 C 279.603,247.769 283.103,248.769 286,251.5C 288.066,265.2 283.233,275.7 271.5,283C 262.667,284.833 259.167,281.333 261,272.5C 264.043,269.491 267.043,266.491 270,263.5C 270.783,258 272.617,253 275.5,248.5 Z"/></g>
</svg>
