<?xml version="1.0" encoding="UTF-8"?>
<!DOCTYPE svg PUBLIC "-//W3C//DTD SVG 1.1//EN" "http://www.w3.org/Graphics/SVG/1.1/DTD/svg11.dtd">
<svg xmlns="http://www.w3.org/2000/svg" version="1.1" width="512px" height="512px" style="shape-rendering:geometricPrecision; text-rendering:geometricPrecision; image-rendering:optimizeQuality; fill-rule:evenodd; clip-rule:evenodd" xmlns:xlink="http://www.w3.org/1999/xlink">
<g><path style="opacity:0.97" fill="#FFFFFF" d="M 315.5,-0.5 C 318.5,-0.5 321.5,-0.5 324.5,-0.5C 356.274,18.2258 388.274,36.7258 420.5,55C 425.218,58.3433 426.718,62.8433 425,68.5C 419.045,80.2509 412.212,91.4176 404.5,102C 400.649,104.496 396.483,105.996 392,106.5C 387.914,113.003 384.081,119.67 380.5,126.5C 389.792,139.689 389.792,152.856 380.5,166C 394.392,180.379 399.892,197.545 397,217.5C 415.484,272.391 404.317,320.224 363.5,361C 380.025,381.589 386.359,405.089 382.5,431.5C 396.171,431.333 409.837,431.5 423.5,432C 434.667,435.167 441.833,442.333 445,453.5C 445.667,471.167 445.667,488.833 445,506.5C 443.27,508.402 441.437,510.069 439.5,511.5C 316.833,511.5 194.167,511.5 71.5,511.5C 69.193,510.023 67.3597,508.023 66,505.5C 65.3333,488.167 65.3333,470.833 66,453.5C 69.1667,442.333 76.3333,435.167 87.5,432C 105.164,431.5 122.83,431.333 140.5,431.5C 140.5,419.167 140.5,406.833 140.5,394.5C 129.495,394.667 118.495,394.5 107.5,394C 90.1556,387.491 82.9889,374.991 86,356.5C 89.1667,345.333 96.3333,338.167 107.5,335C 123.5,334.333 139.5,334.333 155.5,335C 160.081,338.438 161.581,342.938 160,348.5C 158.833,351 157,352.833 154.5,354C 141.5,354.333 128.5,354.667 115.5,355C 107.76,356.3 104.927,360.8 107,368.5C 108.728,371.953 111.562,373.786 115.5,374C 168.833,374.667 222.167,374.667 275.5,374C 283.24,372.7 286.073,368.2 284,360.5C 282.272,357.047 279.438,355.214 275.5,355C 262.167,354.667 248.833,354.333 235.5,354C 228.833,347.667 228.833,341.333 235.5,335C 253.715,334.946 271.882,334.113 290,332.5C 324.032,322.624 342.532,299.958 345.5,264.5C 345.181,260.705 344.181,257.205 342.5,254C 338.512,253.718 334.679,252.885 331,251.5C 324.263,266.126 312.763,272.959 296.5,272C 291.823,281.026 286.156,289.359 279.5,297C 275.837,298.708 272.004,299.874 268,300.5C 262.13,299.317 256.63,297.15 251.5,294C 231.419,282.544 211.585,270.711 192,258.5C 187.32,251.365 186.32,243.698 189,235.5C 192.959,229.082 196.793,222.582 200.5,216C 192.642,205.213 191.476,193.713 197,181.5C 216.414,147.669 236.081,114.003 256,80.5C 263.807,72.5892 273.14,69.5892 284,71.5C 287.414,65.0031 291.081,58.6697 295,52.5C 294.636,48.5401 294.136,44.5401 293.5,40.5C 293.542,37.7414 294.042,35.0747 295,32.5C 300.871,20.7283 307.704,9.72833 315.5,-0.5 Z M 323.5,24.5 C 349.06,38.2841 374.393,52.6175 399.5,67.5C 400.583,68.365 400.749,69.365 400,70.5C 397.365,75.2983 394.532,79.9649 391.5,84.5C 365.704,69.8664 340.037,55.033 314.5,40C 317.727,34.9456 320.727,29.779 323.5,24.5 Z M 312.5,63.5 C 332.354,75.1721 352.354,86.6721 372.5,98C 369.207,103.418 366.04,108.918 363,114.5C 342.92,103.212 323.087,91.5449 303.5,79.5C 306.528,74.1496 309.528,68.8163 312.5,63.5 Z M 276.5,91.5 C 280.511,91.5016 284.178,92.6683 287.5,95C 312.998,109.581 338.331,124.414 363.5,139.5C 367.778,145.611 366.945,150.945 361,155.5C 330.052,149.47 309.052,161.137 298,190.5C 293.419,210.248 298.252,227.248 312.5,241.5C 310.423,248.702 305.757,251.535 298.5,250C 272.167,235 245.833,220 219.5,205C 215.337,202.179 213.837,198.345 215,193.5C 233.667,160.833 252.333,128.167 271,95.5C 272.812,94.0229 274.645,92.6896 276.5,91.5 Z M 340.5,174.5 C 361.454,173.126 373.454,182.792 376.5,203.5C 372.459,227.179 358.792,236.346 335.5,231C 317.535,220.769 313.035,206.269 322,187.5C 326.689,180.964 332.856,176.631 340.5,174.5 Z M 217.5,228.5 C 237.853,239.345 257.853,250.845 277.5,263C 274.33,268.324 270.997,273.49 267.5,278.5C 247.505,267.505 227.838,256.005 208.5,244C 211.638,238.888 214.638,233.721 217.5,228.5 Z M 381.5,239.5 C 391.511,294.317 372.177,335.484 323.5,363C 317.655,365.67 311.655,367.836 305.5,369.5C 305.666,365.154 305.499,360.821 305,356.5C 304.55,354.481 303.717,352.648 302.5,351C 342.606,336.064 363.606,307.23 365.5,264.5C 365.486,259.919 365.153,255.419 364.5,251C 371.237,248.64 376.904,244.807 381.5,239.5 Z M 344.5,374.5 C 346.903,374.393 348.736,375.393 350,377.5C 357.777,387.831 361.777,399.498 362,412.5C 362.5,418.825 362.666,425.158 362.5,431.5C 355.833,431.5 349.167,431.5 342.5,431.5C 342.666,422.494 342.5,413.494 342,404.5C 340.084,396.426 336.251,389.426 330.5,383.5C 335.571,380.974 340.238,377.974 344.5,374.5 Z M 161.5,394.5 C 184.5,394.5 207.5,394.5 230.5,394.5C 230.5,406.833 230.5,419.167 230.5,431.5C 207.5,431.5 184.5,431.5 161.5,431.5C 161.5,419.167 161.5,406.833 161.5,394.5 Z M 251.5,394.5 C 269.17,394.333 286.836,394.5 304.5,395C 312.703,395.677 318.203,399.843 321,407.5C 322.321,415.439 322.821,423.439 322.5,431.5C 298.833,431.5 275.167,431.5 251.5,431.5C 251.5,419.167 251.5,406.833 251.5,394.5 Z M 95.5,451.5 C 202.167,451.333 308.834,451.5 415.5,452C 419.438,452.214 422.272,454.047 424,457.5C 425.409,468.77 425.909,480.104 425.5,491.5C 312.167,491.5 198.833,491.5 85.5,491.5C 85.3335,481.494 85.5002,471.494 86,461.5C 86.679,455.657 89.8457,452.324 95.5,451.5 Z"/></g>
<g><path style="opacity:0.919" fill="#FFFFFF" d="M 190.5,334.5 C 201.988,333.154 206.822,338.154 205,349.5C 198.593,356.106 192.259,356.106 186,349.5C 185.333,346.167 185.333,342.833 186,339.5C 187.707,337.963 189.207,336.296 190.5,334.5 Z"/></g>
</svg>
