<svg width="40" height="43" viewBox="0 0 40 43" fill="none" xmlns="http://www.w3.org/2000/svg">
<path d="M1.33299 15C1.33299 8.40034 1.33299 5.1005 3.38324 3.05025C5.4335 1 8.73333 1 15.333 1H24.6663C31.266 1 34.5658 1 36.6161 3.05025C38.6663 5.1005 38.6663 8.40034 38.6663 15V30.9311C38.6663 37.1921 38.6663 40.3226 36.6963 41.2801C34.7263 42.2376 32.2647 40.3035 27.3416 36.4353L25.766 35.1973C22.9978 33.0223 21.6137 31.9348 19.9997 31.9348C18.3856 31.9348 17.0015 33.0223 14.2333 35.1974L12.6577 36.4353C7.7346 40.3035 5.27303 42.2376 3.30301 41.2801C1.33299 40.3226 1.33299 37.1921 1.33299 30.9311V15Z" fill="#222222" stroke="#222222" stroke-width="2"/>
</svg>
