<svg width="40" height="60" viewBox="0 0 40 60" fill="none" xmlns="http://www.w3.org/2000/svg">
<g clip-path="url(#clip0_25_5671)">
<path d="M30.1976 0.0563383C25.9964 0.594704 22.7395 2.92762 21.9088 5.99725C21.8072 6.38449 21.7833 6.63951 21.7773 7.30538C21.7773 8.25933 21.867 8.75519 22.1957 9.52496C23.0861 11.6312 25.1777 12.9866 28.2255 13.4352C29.0741 13.558 31.0044 13.5438 31.9247 13.4069C36.0541 12.7882 39.1019 10.5308 39.8609 7.53206C40.0461 6.7859 40.0461 5.56278 39.8609 4.86385C39.1796 2.34675 36.9804 0.665541 33.6577 0.122454C32.8629 -0.00505447 30.9805 -0.0428343 30.1976 0.0563383Z" fill="black"/>
<path d="M23.5943 16.8783C22.3273 16.9727 21.9508 17.0058 21.2218 17.105C17.0923 17.6575 12.8553 19.2018 9.04258 21.5441C7.95494 22.2147 7.08243 22.8192 5.54659 23.9857C1.99084 26.6822 0.10241 28.5854 0.00679326 29.5629C-0.029063 29.9218 0.0725298 30.1296 0.419141 30.4319C0.867344 30.8097 1.36933 30.9419 1.88327 30.805C2.53466 30.6302 3.45497 29.9502 5.66013 27.9951C8.88122 25.1332 10.2856 24.0943 11.8453 23.419C12.6521 23.0648 13.2258 22.9231 13.8832 22.9184C14.3732 22.9137 14.4449 22.9278 14.7079 23.0459C15.4011 23.367 15.67 24.0329 15.4369 24.8215C15.3832 24.9916 13.3513 28.9207 10.9131 33.5582C8.48083 38.1957 6.22188 42.4931 5.90515 43.1024C4.19003 46.3798 2.83944 49.6619 2.22988 52.0232C1.81156 53.6383 1.69204 55.2486 1.91913 56.1506C2.44502 58.2285 4.196 59.4705 7.19 59.8908C7.93103 59.9995 9.5864 60.0325 10.5485 59.9664C15.2278 59.6406 20.5524 57.7893 25.8532 54.6536C30.6101 51.839 34.7695 48.2593 35.4567 46.3845C35.7137 45.695 35.2595 44.93 34.4527 44.6844C34.0882 44.5758 33.8551 44.6136 33.4189 44.8544C32.7914 45.2039 32.2117 45.6572 30.1978 47.3526C27.1201 49.9547 25.644 51.0503 24.3293 51.7304C22.8293 52.5049 21.7178 52.6087 21.0843 52.0373C20.7497 51.7351 20.6421 51.4187 20.6839 50.8709C20.7616 50.0255 21.2277 48.8213 22.172 47.022C22.9787 45.4919 31.6619 27.6503 32.0085 26.8097C32.642 25.2749 32.9109 24.1604 32.9587 22.9089C33.0125 21.5819 32.8273 20.7224 32.2894 19.8299C31.9428 19.2537 31.6081 18.8901 31.0285 18.4509C29.5643 17.3505 27.5504 16.8311 24.7895 16.8547C24.2456 16.8594 23.7078 16.8689 23.5943 16.8783Z" fill="black"/>
</g>
<defs>
<clipPath id="clip0_25_5671">
<rect width="40" height="60" fill="white"/>
</clipPath>
</defs>
</svg>
