<svg width="56" height="56" viewBox="0 0 56 56" fill="none" xmlns="http://www.w3.org/2000/svg">
<path fill-rule="evenodd" clip-rule="evenodd" d="M8.16667 36.1667L16.8223 27.511C18.7151 25.6182 19.6615 24.6718 20.7036 24.8725C21.7456 25.0732 22.2729 26.3034 23.3273 28.7638L26.8363 36.9515C27.3636 38.1817 27.6272 38.7968 28.1482 38.8971C28.6692 38.9974 29.1424 38.5242 30.0888 37.5778L34.5049 33.1618L34.5049 33.1617C35.8382 31.8284 36.5049 31.1618 37.3333 31.1618C38.1618 31.1618 38.8284 31.8284 40.1618 33.1618L44.3235 37.3235C45.4796 38.4796 46.0577 39.0577 46.7928 39.3622C47.3639 39.5987 47.9847 39.6515 49 39.6633V40.9993C49 44.7705 49 46.6562 47.8284 47.8277C46.6569 48.9993 44.7712 48.9993 41 48.9993H15C11.2288 48.9993 9.34315 48.9993 8.17157 47.8277C7 46.6562 7 44.7705 7 40.9993V14.9993C7 11.2333 7 9.34773 8.16667 8.1758V36.1667Z" fill="#222222"/>
<path d="M28 7H15C11.2288 7 9.34315 7 8.17157 8.17157C7 9.34315 7 11.2288 7 15V41C7 44.7712 7 46.6569 8.17157 47.8284C9.34315 49 11.2288 49 15 49H41C44.7712 49 46.6569 49 47.8284 47.8284C49 46.6569 49 44.7712 49 41V28" stroke="#222222" stroke-width="2"/>
<path d="M49 7V6H50V7H49ZM37.958 17.1142C37.5268 17.4592 36.8975 17.3893 36.5525 16.958C36.2075 16.5268 36.2774 15.8975 36.7086 15.5525L37.958 17.1142ZM48 18.6667V7H50V18.6667H48ZM49 8H37.3333V6H49V8ZM49.6247 7.78087L37.958 17.1142L36.7086 15.5525L48.3753 6.21913L49.6247 7.78087Z" fill="#222222"/>
</svg>
